<?xml version="1.0" encoding="UTF-8"?>
<svg version="1.1" xmlns="http://www.w3.org/2000/svg" width="768" height="768">
<path d="M0 0 C253.44 0 506.88 0 768 0 C768 253.44 768 506.88 768 768 C514.56 768 261.12 768 0 768 C0 514.56 0 261.12 0 0 Z " fill="#111111" transform="translate(0,0)"/>
<path d="M0 0 C-3.69107633 3.05501618 -7.81810033 5.03013588 -12.0625 7.1875 C-41.18199954 22.33890857 -59.76622459 46.91033915 -69.92871094 77.74926758 C-76.68121063 99.6442248 -78.23329925 121.69215758 -73 144 C-72.77183594 145.07894531 -72.54367187 146.15789062 -72.30859375 147.26953125 C-70.72217366 154.33136697 -68.20136167 160.52787044 -65 167 C-64.20916016 168.68996094 -64.20916016 168.68996094 -63.40234375 170.4140625 C-59.65011477 178.2604092 -55.3424423 185.14773705 -50 192 C-48.99783448 193.33170644 -47.99704334 194.66445429 -47 196 C-69.72910451 185.81297967 -85.1429032 160.43618981 -93.79492188 138.32226562 C-99.44514619 123.17505985 -101.49131769 107.0997952 -102 91 C-102.7933855 93.04099935 -103.5846303 95.0828309 -104.375 97.125 C-104.81585938 98.26195312 -105.25671875 99.39890625 -105.7109375 100.5703125 C-106.88454703 103.69282513 -107.96842774 106.82815631 -109 110 C-109.66 110 -110.32 110 -111 110 C-115.08092324 79.53882293 -109.84595787 48.51080353 -91.125 23.5625 C-89.4453125 21.44140625 -89.4453125 21.44140625 -88 20 C-87.34 20 -86.68 20 -86 20 C-86 19.34 -86 18.68 -86 18 C-84.25 16.4921875 -84.25 16.4921875 -82 14.875 C-81.2575 14.33617187 -80.515 13.79734375 -79.75 13.2421875 C-78.88375 12.62730469 -78.88375 12.62730469 -78 12 C-77.34 12.33 -76.68 12.66 -76 13 C-77.051875 14.27230469 -77.051875 14.27230469 -78.125 15.5703125 C-88.91534294 28.816823 -95.82190084 41.40812545 -100 58 C-99.5875 57.24976563 -99.175 56.49953125 -98.75 55.7265625 C-84.1085342 29.77717891 -62.27638876 12.35071691 -33.875 3.6875 C-22.61117063 0.70853037 -11.62833351 -0.34769104 0 0 Z " fill="#F8F8F8" transform="translate(366,320)"/>
<path d="M0 0 C0.66 0.33 1.32 0.66 2 1 C0.02 3.97 0.02 3.97 -2 7 C-1.40574219 6.72285156 -0.81148438 6.44570312 -0.19921875 6.16015625 C6.23635416 3.34772081 11.99798181 2.26623643 19 2 C15.0580583 6.88049925 10.88049925 11.0580583 6 15 C8.53842322 15 11.06803246 14.95411437 13.60546875 14.89453125 C15.46613713 14.86660127 17.32681474 14.83928162 19.1875 14.8125 C20.56905273 14.77479492 20.56905273 14.77479492 21.97851562 14.73632812 C28.05221901 14.6716684 32.44762465 15.51415392 38 18 C37.42415568 20.38564077 36.77772405 22.66682784 36 25 C36.59167969 25.04898438 37.18335938 25.09796875 37.79296875 25.1484375 C42.19104472 25.56456867 45.96928897 26.04965595 50 28 C47.47113514 30.52886486 44.56851786 31.69422701 41.375 33.1875 C36.03026601 35.74971567 31.70441144 38.50976695 27.453125 42.71484375 C26 44 26 44 24 44 C24 42.35 24 40.7 24 39 C22.35 39 20.7 39 19 39 C19.04640625 39.58007812 19.0928125 40.16015625 19.140625 40.7578125 C19.40423002 46.46297833 18.69915497 49.40408019 15 54 C14.67 54.66 14.34 55.32 14 56 C18.99862631 53.32172368 23.82339409 50.49248447 28.5625 47.375 C36.38335075 42.33635666 43.68535456 39.86183605 53 39.8125 C54.216875 39.79832031 55.43375 39.78414062 56.6875 39.76953125 C59.7719563 39.98413375 61.42673876 40.37241226 64 42 C61.55720825 44.21178328 59.10979468 46.4177746 56.65234375 48.61328125 C55.12628948 49.98650534 53.61117324 51.37259182 52.12890625 52.79296875 C45.02728436 59.41774312 35.57268297 62.22011688 26 63 C23.6796875 62.54296875 23.6796875 62.54296875 22 62 C23.65 60.35 25.3 58.7 27 57 C22.12356918 57.44331189 20.22305658 58.37484669 17 62 C15.86356575 63.58147144 14.76005556 65.18702798 13.6875 66.8125 C8.80973464 73.8743394 3.79125273 79.25420542 -4 83 C-4.99 83 -5.98 83 -7 83 C-7.33 82.01 -7.66 81.02 -8 80 C-11.96 79.505 -11.96 79.505 -16 79 C-15.41992188 78.36384766 -15.41992188 78.36384766 -14.828125 77.71484375 C-8.07490734 70.10911594 -4.5250504 63.77837837 -4.58203125 53.46484375 C-5.38209293 46.83255678 -9.22264486 42.15153517 -13.375 37.125 C-15.96156656 32.15083355 -15.79085153 27.4818854 -15 22 C-12.05031796 13.01104803 -7.46862378 5.77120929 0 0 Z " fill="#F7F7F7" transform="translate(376,188)"/>
<path d="M0 0 C-0.64066406 0.556875 -1.28132813 1.11375 -1.94140625 1.6875 C-11.31533333 9.95779036 -20.25819897 18.28271014 -23 31 C-22.57332031 30.6596875 -22.14664063 30.319375 -21.70703125 29.96875 C-15.45191131 25.1194199 -8.77450376 21.06883305 -2 17 C-2 20.67854564 -2.68755567 21.08318421 -5.17578125 23.65234375 C-5.83900391 24.34650391 -6.50222656 25.04066406 -7.18554688 25.75585938 C-7.88744141 26.47580078 -8.58933594 27.19574219 -9.3125 27.9375 C-10.68533336 29.36160632 -12.05648513 30.787336 -13.42578125 32.21484375 C-14.03848877 32.84511475 -14.65119629 33.47538574 -15.2824707 34.12475586 C-20.64033041 39.97460951 -21.35244048 45.25390115 -22.07421875 52.93164062 C-22.58081993 57.52110382 -23.66100231 60.9291215 -26 65 C-26.33 65 -26.66 65 -27 65 C-27 58.07 -27 51.14 -27 44 C-30.730994 51.05644518 -33.68793806 57.12762834 -35 65 C-37.5654594 62.4345406 -37.54046087 60.52313332 -38 57 C-38.99 57.495 -38.99 57.495 -40 58 C-42.13180267 64.39540802 -40.85218057 71.42603564 -40 78 C-40.66 78 -41.32 78 -42 78 C-43.70189754 81.37924848 -45.36853133 84.7736518 -47 88.1875 C-47.7734375 89.78658203 -47.7734375 89.78658203 -48.5625 91.41796875 C-52.35356581 100.86472784 -52.24627843 110.03872323 -52.125 120.0625 C-52.11494832 121.51496778 -52.10582635 122.9674423 -52.09765625 124.41992188 C-52.07582017 127.94675682 -52.04141149 131.4733342 -52 135 C-55.32759923 133.44805246 -57.48580485 131.69378051 -60 129 C-63.03293704 129.6745027 -63.03293704 129.6745027 -64.17529297 131.72363281 C-65.15501815 134.42788314 -65.22724969 136.54752768 -65.1953125 139.421875 C-65.18886719 140.44667969 -65.18242187 141.47148437 -65.17578125 142.52734375 C-65.15902344 143.59082031 -65.14226562 144.65429688 -65.125 145.75 C-65.11597656 146.82894531 -65.10695313 147.90789062 -65.09765625 149.01953125 C-65.07411305 151.67991278 -65.04122799 154.33984336 -65 157 C-64.45730469 156.52296631 -63.91460937 156.04593262 -63.35546875 155.55444336 C-62.64003906 154.92675049 -61.92460937 154.29905762 -61.1875 153.65234375 C-60.47980469 153.03093506 -59.77210938 152.40952637 -59.04296875 151.76928711 C-56.74577276 149.77982973 -54.39464864 147.87081925 -52 146 C-51 149 -51 149 -52.1875 151.5234375 C-55.89748491 157.36026721 -59.02281044 161.46247965 -65 165 C-65.66 164.67 -66.32 164.34 -67 164 C-66.5978125 162.8553125 -66.5978125 162.8553125 -66.1875 161.6875 C-65.94118136 156.84323343 -67.63123847 153.85836796 -69.7734375 149.5859375 C-72.22962273 144.40761068 -72.18299966 139.63443026 -72.1875 134 C-72.19974609 133.19304687 -72.21199219 132.38609375 -72.22460938 131.5546875 C-72.22654297 130.77351562 -72.22847656 129.99234375 -72.23046875 129.1875 C-72.23457764 128.47980469 -72.23868652 127.77210938 -72.24291992 127.04296875 C-71.96224712 124.68249634 -71.08982583 123.09351894 -70 121 C-70.28203516 118.74371871 -70.87395355 117.22058129 -72 115.25 C-73.48306551 111.9131026 -73.72483373 108.59472537 -74 105 C-74.11214844 104.06414062 -74.22429687 103.12828125 -74.33984375 102.1640625 C-74.6793409 97.53022415 -74.88062965 94.30263817 -72.21484375 90.359375 C-70.73957409 88.70457517 -69.24990218 87.06250236 -67.74609375 85.43359375 C-65.67803304 82.55126305 -65.68411823 81.39622912 -66.0625 77.9375 C-66.39785558 74.45200099 -66.2680888 73.36926517 -64.16796875 70.4765625 C-61.23314998 67.54648496 -58.37945638 64.78860531 -54.765625 62.72265625 C-52.05126027 60.07434907 -52.23707841 56.97330501 -52 53.375 C-51.40017713 46.83737284 -50.1384094 41.85836422 -47 36 C-46.34 36 -45.68 36 -45 36 C-44.01 37.98 -43.02 39.96 -42 42 C-41.92523438 41.24976563 -41.85046875 40.49953125 -41.7734375 39.7265625 C-40.26566819 27.98961313 -35.15899416 19.4752488 -26 12 C-6.55596437 -2.18532146 -6.55596437 -2.18532146 0 0 Z " fill="#F7F8F7" transform="translate(358,160)"/>
<path d="M0 0 C17.41095986 -0.63162405 33.63254455 -0.2129217 49 9 C49 9.33 49 9.66 49 10 C45.7 10 42.4 10 39 10 C44.36174609 13.79592643 49.76052482 17.51567007 55.25 21.125 C59.40204229 23.87519296 63.27948044 26.6928715 67 30 C65.68 30.66 64.36 31.32 63 32 C63.81082031 32.59425781 64.62164062 33.18851563 65.45703125 33.80078125 C73.31100246 39.64864629 80.25766413 45.89284836 87 53 C83.35839192 54.21386936 82.66834531 53.6674695 79.3125 52.0625 C78.10013672 51.49208984 78.10013672 51.49208984 76.86328125 50.91015625 C76.24839844 50.60980469 75.63351562 50.30945313 75 50 C75.51949219 50.88300781 76.03898437 51.76601562 76.57421875 52.67578125 C83.20948132 64.04846833 88.57083786 75.2117709 92 88 C92.18095215 88.65468262 92.3619043 89.30936523 92.54833984 89.98388672 C94.14573827 96.30106503 94.29925379 102.38170899 94.25 108.875 C94.26160156 110.39287109 94.26160156 110.39287109 94.2734375 111.94140625 C94.25616672 118.685646 93.95241811 125.49957822 92 132 C91.34 132.33 90.68 132.66 90 133 C89.835 131.96875 89.67 130.9375 89.5 129.875 C86.92996374 119.61308216 79.7275135 109.94687532 73 102 C73.66 101.67 74.32 101.34 75 101 C78.62848922 102.38542316 81.76527494 103.84351662 85 106 C83.40166015 102.91361248 81.79531567 99.83146036 80.1875 96.75 C79.73568359 95.87730469 79.28386719 95.00460937 78.81835938 94.10546875 C78.37685547 93.26113281 77.93535156 92.41679687 77.48046875 91.546875 C77.07723389 90.77182617 76.67399902 89.99677734 76.25854492 89.19824219 C75.0315452 86.94157099 75.0315452 86.94157099 73.3449707 84.84082031 C72 83 72 83 72 81 C73.98 81 75.96 81 78 81 C72.98257998 73.34843447 67.69715215 66.13143477 60 61 C60 60.34 60 59.68 60 59 C70.55808656 62.07517084 70.55808656 62.07517084 75 64 C71.92135227 57.59517508 68.11263638 52.58496805 63.25390625 47.4140625 C61.25735722 45.27564431 59.41172797 43.07703921 57.5625 40.8125 C48.91141725 31.0407088 36.59658374 25.77770821 24 23 C24 22.34 24 21.68 24 21 C27.63 20.67 31.26 20.34 35 20 C35 19.34 35 18.68 35 18 C34.27039063 17.73832031 33.54078125 17.47664063 32.7890625 17.20703125 C29.95278006 15.97956448 27.83641481 14.5438513 25.375 12.6875 C17.58183253 7.11764331 9.09503338 3.83287925 0 1 C0 0.67 0 0.34 0 0 Z " fill="#F3F3F3" transform="translate(398,177)"/>
<path d="M0 0 C7.56270373 -0.50418025 14.4674997 1.46625853 21.3828125 4.46875 C33.23368804 9.48553533 48.27043429 12.85862076 60.96484375 9.12890625 C63.07354714 8.1958819 65.0125061 7.16170418 67 6 C67.99 5.67 68.98 5.34 70 5 C70.86112581 20.04099757 70.86112581 20.04099757 67.625 23.875 C62.2385356 28.23547118 56.71588672 27.63446568 50 27 C44.53968941 25.75829672 39.2634449 23.89186723 34 22 C34.44730469 22.35191406 34.89460938 22.70382812 35.35546875 23.06640625 C43.38724275 29.62540293 48.01385919 36.59915687 49.40234375 47.01953125 C49.65160591 49.67946584 49.85540749 52.33251749 50 55 C45.33333333 51 40.66666667 47 36 43 C36.31049726 44.43793392 36.6234776 45.8753318 36.9375 47.3125 C37.11152344 48.11300781 37.28554688 48.91351563 37.46484375 49.73828125 C37.99886159 52.145401 37.99886159 52.145401 39 55 C30.11019783 51.66242515 23.84411609 46.4037998 18 39 C17.70867187 39.75023437 17.41734375 40.50046875 17.1171875 41.2734375 C7.48676364 65.3192128 7.48676364 65.3192128 -3 70 C-1.62657565 60.91900016 1.16739825 52.17682388 5.5859375 44.1015625 C7.23670212 40.48082463 7.77430621 37.0370733 8.1875 33.125 C8.26935547 32.43664062 8.35121094 31.74828125 8.43554688 31.0390625 C8.63370738 29.36052643 8.81827787 27.68039519 9 26 C9.66 26 10.32 26 11 26 C11 26.66 11 27.32 11 28 C12.08667969 28.29003906 12.08667969 28.29003906 13.1953125 28.5859375 C14.16210938 28.84632813 15.12890625 29.10671875 16.125 29.375 C17.55199219 29.75785156 17.55199219 29.75785156 19.0078125 30.1484375 C22.03913539 31.01113775 25.01754566 31.98224852 28 33 C26.90322765 30.72532419 25.79801578 28.45545476 24.6875 26.1875 C24.37876953 25.54490234 24.07003906 24.90230469 23.75195312 24.24023438 C22.15541307 20.99673722 20.64990707 18.45422163 18 16 C18 15.34 18 14.68 18 14 C17.43152344 13.74992187 16.86304688 13.49984375 16.27734375 13.2421875 C13.67173488 11.8209463 11.74705243 10.13160795 9.5625 8.125 C6.45250699 5.30239908 3.32320837 2.57280648 0 0 Z " fill="#F3F3F3" transform="translate(388,274)"/>
<path d="M0 0 C0.33 0.66 0.66 1.32 1 2 C0.30861733 4.03957887 -0.38720906 6.0777276 -1.1015625 8.109375 C-11.93914949 42.97813314 -6.06967318 81.22034517 10.5 113.125 C14.21153552 120.0871448 18.09944242 126.79485712 23 133 C22.67 133.66 22.34 134.32 22 135 C2.06189185 120.39930576 -13.99421293 98.73352559 -18.55078125 74.01171875 C-20.75565554 57.2782581 -19.48485056 40.90690273 -14 25 C-13.55140625 23.56720703 -13.55140625 23.56720703 -13.09375 22.10546875 C-10.51123652 14.70465466 -5.58536107 5.58536107 0 0 Z " fill="#F6F6F6" transform="translate(335,378)"/>
<path d="M0 0 C15.83050062 8.78205005 28.21606584 16.62427889 37.00976562 32.99633789 C40.78702915 39.89425798 45.13777115 46.37957932 49.5625 52.875 C50.27075928 53.92042969 50.97901855 54.96585938 51.70874023 56.04296875 C56.20213127 62.59698009 60.94244507 68.87112359 66 75 C65.01 75.495 65.01 75.495 64 76 C36.18389267 65.47073903 16.66897504 40.10755464 4.02392578 14.28662109 C1.96358696 9.68549248 0 5.07839146 0 0 Z " fill="#F7F7F6" transform="translate(462,483)"/>
<path d="M0 0 C0.70527832 0.57355225 0.70527832 0.57355225 1.42480469 1.15869141 C5.71124079 4.52391055 9.89715557 7.02368628 14.8503418 9.26953125 C25.6125528 14.22744064 31.42950758 20.3057588 37.78466797 30.14794922 C42.59465571 37.47791446 48.2579275 43.46372124 55 49 C56.50494421 50.28590268 58.00507244 51.57746604 59.5 52.875 C60.1703125 53.44992187 60.840625 54.02484375 61.53125 54.6171875 C62.0159375 55.07351563 62.500625 55.52984375 63 56 C63 56.33 63 56.66 63 57 C47.98119852 58.01822383 35.91554323 51.31607853 24.875 41.6875 C23.23362122 40.1422146 21.60835194 38.57963137 20 37 C19.2265625 36.25105469 18.453125 35.50210938 17.65625 34.73046875 C9.4089728 26.2148726 0 12.19756655 0 0 Z " fill="#F7F7F6" transform="translate(441,415)"/>
<path d="M0 0 C6.97476218 1.07304034 12.22797611 6.84422139 17.125 11.5 C17.77734619 12.1180249 18.42969238 12.7360498 19.10180664 13.37280273 C20.43401575 14.63910751 21.76386718 15.90789745 23.09130859 17.17919922 C24.83588298 18.84344017 26.59716211 20.48761614 28.36328125 22.12890625 C39.57754461 32.71898938 49.51421032 46.68936266 50.09765625 62.67578125 C50.08605469 63.54589844 50.07445312 64.41601562 50.0625 65.3125 C50.05347656 66.19550781 50.04445313 67.07851563 50.03515625 67.98828125 C50.02355469 68.65214844 50.01195312 69.31601562 50 70 C49.29488281 69.28457031 48.58976562 68.56914062 47.86328125 67.83203125 C45.53637339 65.50512339 43.13990071 63.2663705 40.69970703 61.05786133 C39.1241936 59.63013177 37.56395983 58.18677895 36.00390625 56.7421875 C34.25271071 55.12578395 32.49536911 53.58521188 30.65234375 52.0703125 C25.29775349 47.42760418 23.38422938 42.49008357 21.15356445 35.94604492 C18.84658764 29.22441451 16.05901399 23.03934266 10 19 C9.67 20.98 9.34 22.96 9 25 C8.34 25 7.68 25 7 25 C5.82627027 21.39809458 4.66223744 17.79312849 3.5 14.1875 C3.16613281 13.16333984 2.83226562 12.13917969 2.48828125 11.08398438 C2.17246094 10.10107422 1.85664063 9.11816406 1.53125 8.10546875 C1.23798828 7.19949951 0.94472656 6.29353027 0.64257812 5.36010742 C0 3 0 3 0 0 Z " fill="#F4F4F4" transform="translate(443,315)"/>
<path d="M0 0 C1.74738522 0.01150875 3.49478273 0.02128875 5.2421875 0.02929688 C6.91667986 0.04271435 8.591161 0.05763549 10.265625 0.07421875 C11.0427887 0.08160568 11.81995239 0.08899261 12.6206665 0.09660339 C16.44276277 0.16368034 20.03233248 0.39690687 23.75 1.3125 C23.75 1.9725 23.75 2.6325 23.75 3.3125 C15.59719569 8.16581645 7.99970282 9.71482406 -1.25 11.3125 C4.36 11.9725 9.97 12.6325 15.75 13.3125 C12.82370292 19.16509415 8.45114181 21.22165427 2.5 23.625 C-9.58283493 25.8401864 -18.02286681 22.90441612 -29.01318359 18.21630859 C-32.69595155 16.72824845 -36.46562486 15.51380937 -40.25 14.3125 C-36.40704127 10.8037116 -30.50312804 8.3125 -25.25 8.3125 C-26.24 6.9925 -27.23 5.6725 -28.25 4.3125 C-19.29063269 -1.06948961 -10.10574702 -0.17107559 0 0 Z " fill="#F4F4F4" transform="translate(425.25,252.6875)"/>
<path d="M0 0 C1.05767578 0.42345703 1.05767578 0.42345703 2.13671875 0.85546875 C4.03300883 1.61346738 5.93143335 2.36614966 7.83203125 3.11328125 C20.26673772 8.11649866 25.81241808 11.88043346 31.97119141 23.89453125 C33.05952469 26.01543785 34.15282028 28.13365592 35.25 30.25 C35.62584229 30.97638672 36.00168457 31.70277344 36.38891602 32.45117188 C39.70028585 38.7146886 43.59596661 44.3832138 47.8359375 50.046875 C49.72882708 52.62995175 51.4070741 55.22522584 53 58 C48.40890459 57.42611307 44.89116435 55.48970422 41 53.125 C40.01858032 52.52933228 40.01858032 52.52933228 39.01733398 51.92163086 C20.47915796 40.3517848 5.99761247 23.30730745 0 2 C0 1.34 0 0.68 0 0 Z " fill="#F7F7F7" transform="translate(398,446)"/>
<path d="M0 0 C4.52052925 1.41772871 6.90113595 3.64135472 10.125 7.0625 C13.67434536 10.75665529 17.25360363 14.1024068 21.3125 17.25 C38.90492432 31.32393946 58.05595029 53.38194581 63 76 C62.58984375 78.30078125 62.58984375 78.30078125 62 80 C61.57332031 79.11441406 61.14664063 78.22882813 60.70703125 77.31640625 C55.33462531 66.54066769 48.50851731 57.37258077 41 48 C40.27683594 47.07445312 39.55367188 46.14890625 38.80859375 45.1953125 C34.88557864 40.199406 30.79684275 35.34286872 26.6875 30.5 C25.91297485 29.58118042 25.91297485 29.58118042 25.12280273 28.64379883 C22.86985043 26.00961753 20.90159033 23.93439356 18 22 C18 25.63 18 29.26 18 33 C9.33333333 24.33333333 0.66666667 15.66666667 -8 7 C-5.49320049 4.43438995 -2.82418907 2.2135536 0 0 Z " fill="#F4F4F4" transform="translate(466,306)"/>
<path d="M0 0 C22.58300289 10.46930474 30.03452686 29.11872417 38.32470703 51.15063477 C40 55.73149516 40 55.73149516 40 58 C23.67482405 51.11402531 10.85373399 30.61615194 4.12695312 14.96923828 C0 4.65437806 0 4.65437806 0 0 Z " fill="#F5F5F4" transform="translate(506,487)"/>
<path d="M0 0 C2.49237692 2.49237692 3.07520429 4.67924411 4.25 8 C8.54073398 19.33801509 14.72045311 28.27950855 23.65307617 36.52612305 C28.4038518 40.99214983 31.42729167 45.68146218 34.4375 51.4375 C34.88287109 52.26443359 35.32824219 53.09136719 35.78710938 53.94335938 C36.86935363 55.95656643 37.9399029 57.9750702 39 60 C36 61 36 61 32.99609375 59.6640625 C31.80127882 58.99963953 30.6154825 58.31882839 29.4375 57.625 C28.81415771 57.25995361 28.19081543 56.89490723 27.54858398 56.51879883 C13.87400027 48.25923079 5.67199028 37.37934828 0.8671875 22.1484375 C-0.90053573 14.91876704 -0.3800519 7.3730068 0 0 Z " fill="#F4F4F3" transform="translate(365,370)"/>
<path d="M0 0 C3.83247606 2.78725532 6.6950694 5.90148275 9.72265625 9.4921875 C11.51039286 11.46084428 13.30623731 13.2608153 15.24609375 15.0703125 C23.36365338 22.69791428 29.1007294 30.16912183 34.04785156 40.15576172 C35.05518775 42.10689444 36.16966412 43.96841095 37.3046875 45.84765625 C37.86414063 46.88792969 38.42359375 47.92820312 39 49 C38.505 49.99 38.505 49.99 38 51 C20.34811601 42.02400335 8.55122433 31.85184723 1.60546875 12.93017578 C0.27568749 8.69096181 -0.06555809 4.42048807 0 0 Z " fill="#F4F4F4" transform="translate(417,352)"/>
<path d="M0 0 C3.77100042 2.16661115 7.1821098 4.59591214 10.625 7.25 C15.36862244 10.85585322 20.1928832 14.08978271 25.33203125 17.1015625 C32.73233135 22.36736901 37.00302627 28.78955006 41.3125 36.6875 C42.09850586 38.09225586 42.09850586 38.09225586 42.90039062 39.52539062 C45.01244289 43.31410409 47.08338574 47.1082191 49 51 C31.3734561 44.40975371 16.06596393 28.17186825 6 12.6875 C5.62593018 12.11281982 5.25186035 11.53813965 4.86645508 10.94604492 C2.65769842 7.41622973 1.16019307 3.99420634 0 0 Z " fill="#F3F2F1" transform="translate(433,511)"/>
<path d="M0 0 C5.94228672 2.82760986 11.44804368 6.48381577 17 10 C17.92167969 10.58265625 18.84335937 11.1653125 19.79296875 11.765625 C26.88969384 16.47476971 31.89099886 22.15624374 37.21484375 28.73828125 C41.87145981 34.4933811 46.63262946 39.89587924 52 45 C49 46 49 46 47.07397461 45.32250977 C46.35733643 44.94924561 45.64069824 44.57598145 44.90234375 44.19140625 C44.10521973 43.77785889 43.3080957 43.36431152 42.48681641 42.93823242 C41.64554199 42.48424072 40.80426758 42.03024902 39.9375 41.5625 C39.08075684 41.10528564 38.22401367 40.64807129 37.34130859 40.17700195 C28.84786485 35.541649 21.60571459 30.12721838 15 23 C14.39671875 22.37867188 13.7934375 21.75734375 13.171875 21.1171875 C0 7.09064885 0 7.09064885 0 0 Z " fill="#F3F3F2" transform="translate(496,558)"/>
<path d="M0 0 C14.49141732 6.78877208 23.02562513 20.16079582 28.375 34.75 C29.77110347 41.28376425 29.14506093 48.35943284 29 55 C26.58503969 51.90031009 24.53174663 48.67435194 22.5 45.3125 C20.16354476 41.44660717 17.77566068 37.63504727 15.2421875 33.89453125 C9.76682759 25.76935138 5.37593777 18.0054704 2.0234375 8.78125 C1.2678635 6.12805924 1.2678635 6.12805924 0 5 C-0.04063832 3.33382885 -0.042721 1.66611905 0 0 Z " fill="#F1F1F1" transform="translate(480,385)"/>
<path d="M0 0 C-0.53367187 0.32871094 -1.06734375 0.65742188 -1.6171875 0.99609375 C-15.70406777 9.9892751 -23.46248802 19.21932316 -27.125 35.625 C-27.27984863 36.35066162 -27.43469727 37.07632324 -27.59423828 37.82397461 C-28.80944232 43.49471203 -30.56309925 48.72436912 -33 54 C-33.66 54 -34.32 54 -35 54 C-36.04015902 26.41178218 -36.04015902 26.41178218 -30 17 C-29.55398438 16.25105469 -29.10796875 15.50210938 -28.6484375 14.73046875 C-23.41323048 6.84841125 -9.91991159 -3.53787057 0 0 Z " fill="#EEEEED" transform="translate(386,169)"/>
<path d="M0 0 C12.49604056 9.55579572 20.48327295 24.79725449 24 40 C24.05838632 41.99914758 24.07347977 44.00135027 24 46 C13.73218171 38.13528811 3.17764408 24.80562019 0.31640625 11.921875 C0.03140989 9.29005673 -0.10257017 6.769631 -0.0625 4.125 C-0.05347656 3.34382813 -0.04445313 2.56265625 -0.03515625 1.7578125 C-0.02355469 1.17773438 -0.01195312 0.59765625 0 0 Z " fill="#F1F1F1" transform="translate(509,396)"/>
<path d="M0 0 C4.41008548 2.31388397 7.52337183 5.39753214 10.8125 9.0625 C11.33875977 9.64322266 11.86501953 10.22394531 12.40722656 10.82226562 C23.37381214 23.0163039 32.14723224 35.57410048 38 51 C38.39445313 51.8559375 38.78890625 52.711875 39.1953125 53.59375 C40.08086847 56.24182029 39.95498947 57.42152843 39 60 C38.57332031 59.11441406 38.14664063 58.22882813 37.70703125 57.31640625 C32.33462531 46.54066769 25.50851731 37.37258077 18 28 C17.27683594 27.07445312 16.55367188 26.14890625 15.80859375 25.1953125 C10.10758335 17.93515311 4.03587758 10.9814984 -2 4 C-1.34 2.68 -0.68 1.36 0 0 Z " fill="#EDEDEC" transform="translate(489,326)"/>
<path d="M0 0 C13.37091145 9.74962293 19.25811089 27.45161484 26 42 C22.41505408 42 22.10099305 41.49277259 19.63671875 39.0703125 C18.99951904 38.44487549 18.36231934 37.81943848 17.70581055 37.17504883 C17.03976807 36.49853271 16.37372559 35.8220166 15.6875 35.125 C15.01050049 34.43752686 14.33350098 33.75005371 13.63598633 33.04174805 C4.60471006 23.67935056 0.14230623 15.40258515 -0.0390625 2.14453125 C-0.02617187 1.43683594 -0.01328125 0.72914063 0 0 Z " fill="#F3F3F2" transform="translate(493,348)"/>
<path d="M0 0 C-0.54284896 7.59988545 -2.47664578 13.02373605 -7.4375 18.875 C-11.36381979 22.1309725 -13.54663912 23.09853294 -18.6875 22.75 C-22 22 -22 22 -24 20 C-10.40394089 0 -10.40394089 0 0 0 Z " fill="#F2F3F2" transform="translate(352,243)"/>
<path d="M0 0 C-1.65 1.65 -3.3 3.3 -5 5 C-3.5459375 4.7525 -3.5459375 4.7525 -2.0625 4.5 C2.29487763 3.86603727 6.60630704 3.9103328 11 4 C11 5.32 11 6.64 11 8 C10.07767578 8.07347656 10.07767578 8.07347656 9.13671875 8.1484375 C8.32847656 8.22320312 7.52023437 8.29796875 6.6875 8.375 C5.88699219 8.44460937 5.08648437 8.51421875 4.26171875 8.5859375 C1.72775559 8.89564426 1.72775559 8.89564426 -1 11 C-2.65549531 11.38499891 -4.3222433 11.72793135 -6 12 C-5.34 13.32 -4.68 14.64 -4 16 C-6.1234016 16.83739781 -8.2487728 17.66980283 -10.375 18.5 C-11.55835938 18.9640625 -12.74171875 19.428125 -13.9609375 19.90625 C-17 21 -17 21 -19 21 C-19.33 20.34 -19.66 19.68 -20 19 C-21.98 19.99 -21.98 19.99 -24 21 C-23.195625 20.113125 -22.39125 19.22625 -21.5625 18.3125 C-18.08087967 14.30286142 -15.16836433 9.92672422 -12.33618164 5.44458008 C-9.14988919 0.61697237 -5.78839732 -2.14385086 0 0 Z " fill="#111214" transform="translate(404,245)"/>
<path d="M0 0 C0.99 0.33 1.98 0.66 3 1 C2.67 1.66 2.34 2.32 2 3 C1.34 3 0.68 3 0 3 C0 3.66 0 4.32 0 5 C-0.99 5.33 -1.98 5.66 -3 6 C-3.43119141 7.40572266 -3.43119141 7.40572266 -3.87109375 8.83984375 C-5.25575431 12.71593507 -6.55740617 13.51662948 -10.0625 15.5625 C-11.53203125 16.43068359 -11.53203125 16.43068359 -13.03125 17.31640625 C-14.0109375 17.87199219 -14.990625 18.42757812 -16 19 C-16.8765625 19.52464844 -17.753125 20.04929688 -18.65625 20.58984375 C-23.12552329 23.20901203 -23.12552329 23.20901203 -25 24 C-25.66 23.67 -26.32 23.34 -27 23 C-25.09570312 20.75390625 -25.09570312 20.75390625 -23.19140625 18.5078125 C-21.08188957 15.83806352 -20.77025624 13.70256241 -20.4375 10.375 C-20.35371094 9.55773437 -20.26992188 8.74046875 -20.18359375 7.8984375 C-20.12300781 7.27195313 -20.06242187 6.64546875 -20 6 C-18.35 6 -16.7 6 -15 6 C-15 7.65 -15 9.3 -15 11 C-14.08476562 10.28972656 -13.16953125 9.57945312 -12.2265625 8.84765625 C-11.02611058 7.91918172 -9.82558597 6.99080118 -8.625 6.0625 C-8.02171875 5.59392578 -7.4184375 5.12535156 -6.796875 4.64257812 C-2.2265625 1.11328125 -2.2265625 1.11328125 0 0 Z " fill="#1B1D1D" transform="translate(415,221)"/>
<path d="M0 0 C1.98 0.66 3.96 1.32 6 2 C5.175 2.94875 4.35 3.8975 3.5 4.875 C-4.0642836 13.72682124 -10.98334562 22.43862236 -16 33 C-18.20768353 28.58463294 -14.23035578 20.65444421 -12.71728516 16.04931641 C-10.74654461 10.41882079 -8.95328993 6.1644613 -3.75 3.0625 C-2.8425 2.711875 -1.935 2.36125 -1 2 C-0.67 1.34 -0.34 0.68 0 0 Z " fill="#1D1E1E" transform="translate(282,347)"/>
<path d="M0 0 C0.33 0 0.66 0 1 0 C1.70132913 6.70019789 2.11044961 13.26257354 2 20 C2.51949219 19.54109375 3.03898437 19.0821875 3.57421875 18.609375 C7.31712166 15.31617392 11.06978801 12.07047811 15 9 C16 12 16 12 14.8125 14.5234375 C11.10251509 20.36026721 7.97718956 24.46247965 2 28 C1.34 27.67 0.68 27.34 0 27 C0.268125 26.236875 0.53625 25.47375 0.8125 24.6875 C1.05888396 19.84194877 -0.67449308 16.92235893 -2.78515625 12.63671875 C-4.10748314 9.76671666 -4.74462138 7.14966959 -5 4 C-4.0409375 3.8453125 -4.0409375 3.8453125 -3.0625 3.6875 C-2.381875 3.460625 -1.70125 3.23375 -1 3 C-0.67 2.01 -0.34 1.02 0 0 Z " fill="#D8D7D8" transform="translate(291,297)"/>
<path d="M0 0 C1.65 0.33 3.3 0.66 5 1 C4.67 1.99 4.34 2.98 4 4 C4.99 4.33 5.98 4.66 7 5 C8.1875 7.0625 8.1875 7.0625 9 9 C6.8765984 9.83739781 4.7512272 10.66980283 2.625 11.5 C1.44164062 11.9640625 0.25828125 12.428125 -0.9609375 12.90625 C-4 14 -4 14 -6 14 C-6.33 13.34 -6.66 12.68 -7 12 C-8.98 12.99 -8.98 12.99 -11 14 C-10.62488281 13.57589844 -10.24976563 13.15179688 -9.86328125 12.71484375 C-6.30335421 8.63482662 -3.08682003 4.4486524 0 0 Z " fill="#1C1D1D" transform="translate(391,252)"/>
<path d="M0 0 C0.30885913 3.86073916 0.25139869 6.45149377 -1.375 10 C-6.18408282 15.49609465 -12.1417567 19.4971706 -19 22 C-16.77023845 16.96239058 -6.13230305 0 0 0 Z " fill="#EEEEEE" transform="translate(376,332)"/>
<path d="M0 0 C4.01247032 0.65267539 7.4446509 1.93174167 11.1875 3.5 C16.84810554 5.73716415 21.92886584 6.84924949 28 7 C28 7.33 28 7.66 28 8 C26.02 8 24.04 8 22 8 C22 8.99 22 9.98 22 11 C16.06131964 9.83150965 10.63686913 8.19742356 5 6 C2.17128059 5.1564455 -0.30187898 4.88836465 -3.25 4.9375 C-4.4875 4.958125 -5.725 4.97875 -7 5 C-7.33 4.34 -7.66 3.68 -8 3 C-6.865625 2.87625 -5.73125 2.7525 -4.5625 2.625 C-3.386875 2.41875 -2.21125 2.2125 -1 2 C-0.67 1.34 -0.34 0.68 0 0 Z " fill="#252423" transform="translate(394,270)"/>
<path d="M0 0 C0.99 0.33 1.98 0.66 3 1 C2.67 1.66 2.34 2.32 2 3 C1.34 3 0.68 3 0 3 C0 3.66 0 4.32 0 5 C-0.99 5.33 -1.98 5.66 -3 6 C-3.28875 6.94875 -3.5775 7.8975 -3.875 8.875 C-5 12 -5 12 -7.5 13.875 C-10 15 -10 15 -12 15 C-12 14.34 -12 13.68 -12 13 C-13.32 13 -14.64 13 -16 13 C-16 11.02 -16 9.04 -16 7 C-17.32 6.67 -18.64 6.34 -20 6 C-18.35 6 -16.7 6 -15 6 C-15 7.65 -15 9.3 -15 11 C-14.08476562 10.28972656 -13.16953125 9.57945312 -12.2265625 8.84765625 C-11.02611058 7.91918172 -9.82558597 6.99080118 -8.625 6.0625 C-8.02171875 5.59392578 -7.4184375 5.12535156 -6.796875 4.64257812 C-2.2265625 1.11328125 -2.2265625 1.11328125 0 0 Z " fill="#1A1C1C" transform="translate(415,221)"/>
<path d="M0 0 C0.66 0 1.32 0 2 0 C3.00772958 3.1959424 3.19442012 4.57177563 1.78515625 7.67578125 C1.21667969 8.54589844 0.64820313 9.41601562 0.0625 10.3125 C-0.50339844 11.19550781 -1.06929688 12.07851562 -1.65234375 12.98828125 C-2.09707031 13.65214844 -2.54179687 14.31601563 -3 15 C-3.99 14.34 -4.98 13.68 -6 13 C-6.67546875 13.62648437 -7.3509375 14.25296875 -8.046875 14.8984375 C-9.38492187 16.12433594 -9.38492187 16.12433594 -10.75 17.375 C-11.63171875 18.18710938 -12.5134375 18.99921875 -13.421875 19.8359375 C-15.59802521 21.6625848 -17.40820119 22.89787994 -20 24 C-17.08063932 20.51298585 -14.10961712 17.099722 -11 13.78125 C-10.46665039 13.21108154 -9.93330078 12.64091309 -9.38378906 12.0534668 C-8.30636993 10.90536819 -7.22506385 9.76090321 -6.13964844 8.62036133 C-3.60284773 5.91479133 -1.38563855 3.47254539 0 0 Z " fill="#1F1F1E" transform="translate(358,175)"/>
<path d="M0 0 C0.66 -0.33 1.32 -0.66 2 -1 C4.64 2.63 7.28 6.26 10 10 C7 11 7 11 5.19067383 10.28735352 C4.53607178 9.90506592 3.88146973 9.52277832 3.20703125 9.12890625 C2.49482422 8.71962891 1.78261719 8.31035156 1.04882812 7.88867188 C0.31083984 7.45103516 -0.42714844 7.01339844 -1.1875 6.5625 C-1.93708984 6.12873047 -2.68667969 5.69496094 -3.45898438 5.24804688 C-5.31127243 4.17442769 -7.1563425 3.08837319 -9 2 C-5.10289999 -0.59806667 -4.36216808 -1.09054202 0 0 Z " fill="#F0F0EE" transform="translate(441,493)"/>
<path d="M0 0 C0 4.33174693 -2.65822583 6.22353653 -5.5 9.1875 C-6.28697266 10.02571289 -6.28697266 10.02571289 -7.08984375 10.88085938 C-8.38661613 12.26015364 -9.69246259 13.63090644 -11 15 C-11.99 14.34 -12.98 13.68 -14 13 C-14.99 13.33 -15.98 13.66 -17 14 C-17 13.01 -17 12.02 -17 11 C-15.05859375 9.31640625 -15.05859375 9.31640625 -12.4375 7.5625 C-11.53128906 6.9540625 -10.62507813 6.345625 -9.69140625 5.71875 C-6.51517183 3.6903855 -3.31086227 1.79938167 0 0 Z " fill="#EAEAE7" transform="translate(356,177)"/>
<path d="M0 0 C4.13937592 3.30015998 7.58662205 6.17324411 10 11 C9.4225 11.2475 8.845 11.495 8.25 11.75 C5.69890938 13.16727257 4.02026893 14.91182287 2 17 C1.66151348 15.10507994 1.32943089 13.20901534 1 11.3125 C0.814375 10.25675781 0.62875 9.20101563 0.4375 8.11328125 C0.04931926 5.35095938 -0.08259976 2.78257957 0 0 Z " fill="#E8E7E7" transform="translate(493,348)"/>
<path d="M0 0 C2.46044923 0.38904539 3.72159721 0.71427082 5.484375 2.5234375 C6.11085938 3.43996094 6.11085938 3.43996094 6.75 4.375 C7.17796875 4.98085937 7.6059375 5.58671875 8.046875 6.2109375 C9 8 9 8 9 11 C4.39146203 10.27991594 0.32762591 8.68704061 -4 7 C-3.525625 6.401875 -3.05125 5.80375 -2.5625 5.1875 C-0.83534256 2.99617076 -0.83534256 2.99617076 0 0 Z " fill="#21211F" transform="translate(464,230)"/>
<path d="M0 0 C2.93693991 3.46771219 4.57954335 7.32385838 6.25 11.5 C6.53101563 12.16386719 6.81203125 12.82773437 7.1015625 13.51171875 C8.23439233 16.32136105 9.07643958 18.42488315 8.671875 21.46875 C8.45015625 21.9740625 8.2284375 22.479375 8 23 C6.70768774 20.58367661 5.41612809 18.16695604 4.125 15.75 C3.76019531 15.06808594 3.39539063 14.38617188 3.01953125 13.68359375 C2.31621915 12.366482 1.61574756 11.04784857 0.91845703 9.72753906 C0.19201047 8.36115525 -0.55639054 7.00644547 -1.3125 5.65625 C-2 4 -2 4 -1.125 1.75 C-0.75375 1.1725 -0.3825 0.595 0 0 Z " fill="#DBDCD9" transform="translate(520,363)"/>
<path d="M0 0 C0 0.99 0 1.98 0 3 C-1.4562545 3.67119549 -2.91507867 4.33681807 -4.375 5 C-5.18710937 5.37125 -5.99921875 5.7425 -6.8359375 6.125 C-9 7 -9 7 -11 7 C-10.67 7.99 -10.34 8.98 -10 10 C-15.52677733 10.19392201 -19.75614911 9.7479503 -25 8 C-25 7.67 -25 7.34 -25 7 C-23.78376953 6.85304688 -23.78376953 6.85304688 -22.54296875 6.703125 C-10.45758277 5.45118106 -10.45758277 5.45118106 0 0 Z " fill="#343535" transform="translate(447,256)"/>
<path d="M0 0 C0.33 0 0.66 0 1 0 C1 6.27 1 12.54 1 19 C-1.42689021 15.76414639 -2.55344013 14.02572857 -3.75 10.375 C-4.01296875 9.59898437 -4.2759375 8.82296875 -4.546875 8.0234375 C-5 6 -5 6 -4 4 C-3.01 3.67 -2.02 3.34 -1 3 C-0.67 2.01 -0.34 1.02 0 0 Z " fill="#E1DFDF" transform="translate(291,297)"/>
<path d="M0 0 C0.66 0 1.32 0 2 0 C3.4631783 1.97440927 4.80713064 3.93238871 6.125 6 C6.68380859 6.85851562 6.68380859 6.85851562 7.25390625 7.734375 C8.17550408 9.15221782 9.08855821 10.57560725 10 12 C9.67 12.66 9.34 13.32 9 14 C7.37081993 12.73452987 5.74679358 11.46242272 4.125 10.1875 C3.22007812 9.47980469 2.31515625 8.77210938 1.3828125 8.04296875 C-1 6 -1 6 -3 3 C-2.34 3 -1.68 3 -1 3 C-0.67 2.01 -0.34 1.02 0 0 Z " fill="#DEDEDB" transform="translate(348,499)"/>
<path d="M0 0 C-1.65 1.65 -3.3 3.3 -5 5 C-4.34 5.66 -3.68 6.32 -3 7 C-5.64 7.33 -8.28 7.66 -11 8 C-11 4 -11 4 -9.1875 1.8125 C-5.90165349 -0.91005854 -3.95702153 -1.22804116 0 0 Z " fill="#313233" transform="translate(404,245)"/>
<path d="M0 0 C0.99 0.33 1.98 0.66 3 1 C2.58427734 2.13888672 2.58427734 2.13888672 2.16015625 3.30078125 C1.79792969 4.29464844 1.43570312 5.28851563 1.0625 6.3125 C0.70285156 7.29863281 0.34320313 8.28476562 -0.02734375 9.30078125 C-0.70885965 11.1920563 -1.3642811 13.09284329 -2 15 C-2.66 15 -3.32 15 -4 15 C-4 11.37 -4 7.74 -4 4 C-2.68 3.67 -1.36 3.34 0 3 C0 2.01 0 1.02 0 0 Z " fill="#D8D8D5" transform="translate(259,415)"/>
<path d="M0 0 C3.93846154 4.30769231 3.93846154 4.30769231 4.25 7.8125 C4.1675 8.534375 4.085 9.25625 4 10 C2.68 10 1.36 10 0 10 C-1.75 8 -1.75 8 -3 6 C-2 4 -1 2 0 0 Z " fill="#E8E8E6" transform="translate(516,356)"/>
<path d="M0 0 C0.66 0.33 1.32 0.66 2 1 C0.54234835 2.62561151 -0.91614386 4.25046934 -2.375 5.875 C-3.18710937 6.77992188 -3.99921875 7.68484375 -4.8359375 8.6171875 C-8.15887743 12.27602027 -10.25412859 13.55560435 -15 15 C-15 15.66 -15 16.32 -15 17 C-15.99 16.67 -16.98 16.34 -18 16 C-17.41992188 15.57332031 -16.83984375 15.14664063 -16.2421875 14.70703125 C-10.40848734 10.26569506 -5.1140181 5.24186855 0 0 Z " fill="#272828" transform="translate(437,231)"/>
<path d="M0 0 C0 0.99 0 1.98 0 3 C-1.32 3.99 -2.64 4.98 -4 6 C1.94 6.33 7.88 6.66 14 7 C14 7.33 14 7.66 14 8 C13.44538086 8.02505615 12.89076172 8.0501123 12.31933594 8.07592773 C9.79601157 8.19227927 7.27302464 8.31482754 4.75 8.4375 C3.44095703 8.49647461 3.44095703 8.49647461 2.10546875 8.55664062 C1.26113281 8.59853516 0.41679687 8.64042969 -0.453125 8.68359375 C-1.22817383 8.72025146 -2.00322266 8.75690918 -2.80175781 8.79467773 C-4.9574976 8.99603015 -6.91801475 9.41729297 -9 10 C-7.61811547 6.78956118 -6.07578097 4.95063635 -3.375 2.75 C-2.74335938 2.22921875 -2.11171875 1.7084375 -1.4609375 1.171875 C-0.73777344 0.59179688 -0.73777344 0.59179688 0 0 Z " fill="#3F3F3F" transform="translate(390,195)"/>
<path d="M0 0 C-2.97 2.64 -5.94 5.28 -9 8 C-10.65 6.68 -12.3 5.36 -14 4 C-12.23494565 3.13395466 -10.46271926 2.28251358 -8.6875 1.4375 C-7.70136719 0.96183594 -6.71523438 0.48617187 -5.69921875 -0.00390625 C-3 -1 -3 -1 0 0 Z " fill="#CECFCC" transform="translate(358,160)"/>
<path d="M0 0 C0 3.63 0 7.26 0 11 C-4.875 6.25 -4.875 6.25 -6 4 C-3.33333333 0 -3.33333333 0 0 0 Z " fill="#E9EAE9" transform="translate(484,328)"/>
<path d="M0 0 C3.96 0.33 7.92 0.66 12 1 C11.01 1.495 11.01 1.495 10 2 C9.34444881 4.52733235 9.34444881 4.52733235 9 7 C7.68381002 6.21448343 6.37214772 5.4213763 5.0625 4.625 C4.33160156 4.18414062 3.60070312 3.74328125 2.84765625 3.2890625 C1 2 1 2 0 0 Z " fill="#1E2020" transform="translate(436,186)"/>
<path d="M0 0 C1 2 1 2 0.4765625 3.98828125 C0.05503906 5.13876953 0.05503906 5.13876953 -0.375 6.3125 C-1.51177605 9.53077009 -2.45472843 12.61931629 -3 16 C-3.33 16 -3.66 16 -4 16 C-4.33 14.35 -4.66 12.7 -5 11 C-5.99 11.495 -5.99 11.495 -7 12 C-5.44298069 7.32894208 -2.91552627 3.91294315 0 0 Z " fill="#D1D1D0" transform="translate(335,378)"/>
<path d="M0 0 C0.66 0.33 1.32 0.66 2 1 C-0.31 3.97 -2.62 6.94 -5 10 C-5.99 9.34 -6.98 8.68 -8 8 C-8 7.34 -8 6.68 -8 6 C-6.25 4.4921875 -6.25 4.4921875 -4 2.875 C-3.2575 2.33617187 -2.515 1.79734375 -1.75 1.2421875 C-1.1725 0.83226562 -0.595 0.42234375 0 0 Z M-10 8 C-9.34 8.33 -8.68 8.66 -8 9 C-9.98 9.99 -9.98 9.99 -12 11 C-11.34 10.01 -10.68 9.02 -10 8 Z " fill="#DAD8D9" transform="translate(288,332)"/>
<path d="M0 0 C3.53372712 1.96318174 6.24479785 4.04070881 9 7 C7.35 7.66 5.7 8.32 4 9 C0 2.25 0 2.25 0 0 Z " fill="#E3E2E1" transform="translate(433,511)"/>
<path d="M0 0 C1.65 0 3.3 0 5 0 C5 1.65 5 3.3 5 5 C6.98 3.68 8.96 2.36 11 1 C11 3.31 11 5.62 11 8 C10.01 8.33 9.02 8.66 8 9 C8 8.34 8 7.68 8 7 C6.68 7 5.36 7 4 7 C4 5.02 4 3.04 4 1 C2.68 0.67 1.36 0.34 0 0 Z " fill="#303131" transform="translate(395,227)"/>
<path d="M0 0 C1.31498364 2.16585541 2.0711395 3.42636721 1.75390625 5.984375 C0.94090705 8.15798944 0.00276742 10.18819209 -1.0625 12.25 C-1.42472656 12.95640625 -1.78695313 13.6628125 -2.16015625 14.390625 C-2.43730469 14.92171875 -2.71445312 15.4528125 -3 16 C-4.57159226 12.85681547 -3.04018399 10.07066611 -2.0625 6.875 C-1.86720703 6.21628906 -1.67191406 5.55757813 -1.47070312 4.87890625 C-0.98695014 3.25066448 -0.49430925 1.62506818 0 0 Z " fill="#424540" transform="translate(269,364)"/>
<path d="M0 0 C3.37462715 0.54723683 5.08235 1.0549 8 3 C5.16730334 4.41634833 2.52533562 4.3463005 -0.625 4.5625 C-1.81351562 4.64628906 -3.00203125 4.73007812 -4.2265625 4.81640625 C-5.59941406 4.90728516 -5.59941406 4.90728516 -7 5 C-7.33 4.34 -7.66 3.68 -8 3 C-6.865625 2.87625 -5.73125 2.7525 -4.5625 2.625 C-3.386875 2.41875 -2.21125 2.2125 -1 2 C-0.67 1.34 -0.34 0.68 0 0 Z " fill="#303031" transform="translate(394,270)"/>
<path d="M0 0 C0 3.96130371 -1.34877125 4.82914401 -4 7.6875 C-4.7425 8.49574219 -5.485 9.30398437 -6.25 10.13671875 C-6.8275 10.75160156 -7.405 11.36648437 -8 12 C-9 9 -9 9 -8.5 6.5625 C-6.34724134 2.88487062 -3.78390911 1.89195456 0 0 Z " fill="#DCDBDB" transform="translate(356,177)"/>
<path d="M0 0 C0.66 0 1.32 0 2 0 C2.6875 2.3125 2.6875 2.3125 3 5 C1.9375 6.75 1.9375 6.75 0 8 C-3.1875 8.6875 -3.1875 8.6875 -6 9 C-5.071875 7.88625 -5.071875 7.88625 -4.125 6.75 C-2.39562719 4.51198812 -1.13893339 2.56260013 0 0 Z " fill="#2B2B2C" transform="translate(358,175)"/>
<path d="M0 0 C2.28459758 2.28459758 2.97129748 4.12537344 4.125 7.125 C4.47820313 8.03507812 4.83140625 8.94515625 5.1953125 9.8828125 C5.46085938 10.58148438 5.72640625 11.28015625 6 12 C0.51136364 9.30681818 0.51136364 9.30681818 -1 7 C-0.6875 3.3125 -0.6875 3.3125 0 0 Z " fill="#DBDCDB" transform="translate(513,379)"/>
<path d="M0 0 C0.33 0 0.66 0 1 0 C0.67 7.59 0.34 15.18 0 23 C-0.33 23 -0.66 23 -1 23 C-1.22587773 19.73012965 -1.42766605 16.45920719 -1.625 13.1875 C-1.68945312 12.25873047 -1.75390625 11.32996094 -1.8203125 10.37304688 C-1.871875 9.48037109 -1.9234375 8.58769531 -1.9765625 7.66796875 C-2.02893066 6.84578857 -2.08129883 6.0236084 -2.13525391 5.17651367 C-2 3 -2 3 0 0 Z " fill="#60615F" transform="translate(331,203)"/>
<path d="M0 0 C2.18975773 3.28463659 2.99806563 6.20696275 4 10 C1.53199953 8.84826645 -0.04783565 7.95216435 -2 6 C-1.64644564 3.73725212 -1.02455574 2.04911148 0 0 Z " fill="#DCDCDA" transform="translate(542,535)"/>
<path d="M0 0 C1.485 0.99 1.485 0.99 3 2 C3.29296875 4.1640625 3.29296875 4.1640625 3.1875 6.625 C3.16042969 7.44226563 3.13335937 8.25953125 3.10546875 9.1015625 C3.07066406 9.72804688 3.03585937 10.35453125 3 11 C0.17661571 7.8083482 -0.62384955 5.23169259 -1 1 C-0.67 0.67 -0.34 0.34 0 0 Z " fill="#F0EDEF" transform="translate(289,305)"/>
<path d="M0 0 C0.66 0.66 1.32 1.32 2 2 C-0.33846154 7.66153846 -0.33846154 7.66153846 -3.6875 9.375 C-4.450625 9.58125 -5.21375 9.7875 -6 10 C-5.38003922 8.70590711 -4.75383647 7.41480327 -4.125 6.125 C-3.77695312 5.40570313 -3.42890625 4.68640625 -3.0703125 3.9453125 C-2 2 -2 2 0 0 Z " fill="#201F20" transform="translate(379,186)"/>
<path d="M0 0 C3.3 0.99 6.6 1.98 10 3 C9.67 4.98 9.34 6.96 9 9 C7.87105124 8.06725891 6.74699124 7.12859878 5.625 6.1875 C4.99851562 5.66542969 4.37203125 5.14335937 3.7265625 4.60546875 C2 3 2 3 0 0 Z " fill="#2B2D2C" transform="translate(421,295)"/>
<path d="M0 0 C2.31 1.98 4.62 3.96 7 6 C2.82412255 7.39195915 0.86525224 5.82323219 -3 4 C-2.01 2.68 -1.02 1.36 0 0 Z " fill="#D5D5D5" transform="translate(478,224)"/>
<path d="M0 0 C0.66 0 1.32 0 2 0 C2.66 1.65 3.32 3.3 4 5 C2.02 5.99 2.02 5.99 0 7 C-0.99 5.68 -1.98 4.36 -3 3 C-2.34 3 -1.68 3 -1 3 C-0.67 2.01 -0.34 1.02 0 0 Z " fill="#EAE9E6" transform="translate(348,499)"/>
<path d="M0 0 C7.42857143 -0.14285714 7.42857143 -0.14285714 11 1 C10.67 1.66 10.34 2.32 10 3 C9.01 3 8.02 3 7 3 C6.67 3.66 6.34 4.32 6 5 C3.98079663 3.69593116 1.98075027 2.36176581 0 1 C0 0.67 0 0.34 0 0 Z " fill="#E8E6E5" transform="translate(388,274)"/>
<path d="M0 0 C2.97 0 5.94 0 9 0 C9 1.32 9 2.64 9 4 C7.02 4 5.04 4 3 4 C3 3.01 3 2.02 3 1 C2.01 0.67 1.02 0.34 0 0 Z " fill="#343534" transform="translate(406,249)"/>
<path d="M0 0 C-1.75 2 -1.75 2 -4 4 C-5.32 4 -6.64 4 -8 4 C-7.6875 2.0625 -7.6875 2.0625 -7 0 C-3.86650268 -1.04449911 -3.01031744 -0.93423645 0 0 Z " fill="#232525" transform="translate(404,245)"/>
<path d="M0 0 C0.66 1.32 1.32 2.64 2 4 C1.67 4.33 1.34 4.66 1 5 C0.76807135 6.51469448 0.58784762 8.03754562 0.4375 9.5625 C0.35371094 10.38878906 0.26992188 11.21507812 0.18359375 12.06640625 C0.12300781 12.70449219 0.06242187 13.34257812 0 14 C-1.32 14 -2.64 14 -4 14 C-3.67 13.01 -3.34 12.02 -3 11 C-2.67 11.33 -2.34 11.66 -2 12 C-1.34 8.04 -0.68 4.08 0 0 Z " fill="#D4D5D4" transform="translate(318,190)"/>
<path d="M0 0 C2 2 2 2 2.125 5.625 C2.08375 6.73875 2.0425 7.8525 2 9 C-1 7 -1 7 -1.8125 4.5 C-1.874375 3.675 -1.93625 2.85 -2 2 C-1.34 1.34 -0.68 0.68 0 0 Z " fill="#1A1D1B" transform="translate(315,194)"/>
<path d="M0 0 C2.31 0.33 4.62 0.66 7 1 C5.68 2.65 4.36 4.3 3 6 C0 2.25 0 2.25 0 0 Z " fill="#D4D3D5" transform="translate(470,258)"/>
<path d="M0 0 C3.465 1.485 3.465 1.485 7 3 C7 3.33 7 3.66 7 4 C3.04 4 -0.92 4 -5 4 C-5.33 3.34 -5.66 2.68 -6 2 C-4.02 2 -2.04 2 0 2 C0 1.34 0 0.68 0 0 Z " fill="#C9CAC9" transform="translate(440,183)"/>
<path d="M0 0 C1.875 0.25 1.875 0.25 4 1 C5.25 3.0625 5.25 3.0625 6 5 C1.25 4.25 1.25 4.25 -1 2 C-0.67 1.34 -0.34 0.68 0 0 Z " fill="#DFDEDC" transform="translate(445,499)"/>
<path d="M0 0 C3 3.75 3 3.75 3 6 C2.46375 5.71125 1.9275 5.4225 1.375 5.125 C-1.35280484 3.83288192 -4.12612718 2.91441408 -7 2 C-3.98968256 1.06576355 -3.13349732 0.95550089 0 2 C0 1.34 0 0.68 0 0 Z " fill="#484846" transform="translate(480,277)"/>
<path d="M0 0 C1.32 0 2.64 0 4 0 C3.67 1.65 3.34 3.3 3 5 C2.01 5 1.02 5 0 5 C0 3.35 0 1.7 0 0 Z " fill="#12130F" transform="translate(270,363)"/>
<path d="M0 0 C0.33 0.99 0.66 1.98 1 3 C0.01 4.485 0.01 4.485 -1 6 C-1.66 6 -2.32 6 -3 6 C-3.66 7.32 -4.32 8.64 -5 10 C-5 6.60406522 -4.47834052 5.93380119 -2.5 3.3125 C-2.0359375 2.68988281 -1.571875 2.06726563 -1.09375 1.42578125 C-0.7328125 0.95527344 -0.371875 0.48476563 0 0 Z " fill="#232425" transform="translate(284,339)"/>
<path d="M0 0 C1.98 0.99 1.98 0.99 4 2 C4 2.99 4 3.98 4 5 C3.67 5 3.34 5 3 5 C2.67 6.98 2.34 8.96 2 11 C1.67 11 1.34 11 1 11 C0.67 7.37 0.34 3.74 0 0 Z " fill="#434545" transform="translate(483,327)"/>
<path d="M0 0 C4.29 0 8.58 0 13 0 C9 3 9 3 7 3 C7 2.34 7 1.68 7 1 C4.69 1 2.38 1 0 1 C0 0.67 0 0.34 0 0 Z " fill="#D8D8D6" transform="translate(353,320)"/>
<path d="M0 0 C0.99 0.33 1.98 0.66 3 1 C3 2.32 3 3.64 3 5 C0.69 4.34 -1.62 3.68 -4 3 C-2.1875 1.4375 -2.1875 1.4375 0 0 Z " fill="#D5D5D3" transform="translate(389,264)"/>
<path d="M0 0 C1.32 0 2.64 0 4 0 C3.67 2.31 3.34 4.62 3 7 C2.34 6.67 1.68 6.34 1 6 C0.375 2.9375 0.375 2.9375 0 0 Z " fill="#060908" transform="translate(395,228)"/>
<path d="M0 0 C-0.375 1.9375 -0.375 1.9375 -1 4 C-1.99 4.495 -1.99 4.495 -3 5 C-4.33333333 3.66666667 -5.66666667 2.33333333 -7 1 C-4.53721199 -0.231394 -2.7204945 -0.07159196 0 0 Z " fill="#E0E0DE" transform="translate(351,163)"/>
<path d="M0 0 C1.65 0 3.3 0 5 0 C4.6875 1.9375 4.6875 1.9375 4 4 C3.01 4.33 2.02 4.66 1 5 C0.67 3.35 0.34 1.7 0 0 Z " fill="#F7F6F5" transform="translate(511,355)"/>
<path d="M0 0 C2.31 0.66 4.62 1.32 7 2 C6.67 2.66 6.34 3.32 6 4 C3.9375 4.625 3.9375 4.625 2 5 C1.34 3.35 0.68 1.7 0 0 Z " fill="#30302E" transform="translate(473,227)"/>
<path d="M0 0 C0.66 0.66 1.32 1.32 2 2 C0.68 3.65 -0.64 5.3 -2 7 C-2.66 6.67 -3.32 6.34 -4 6 C-3.6875 4.125 -3.6875 4.125 -3 2 C-2.01 1.34 -1.02 0.68 0 0 Z " fill="#1C1F1D" transform="translate(338,185)"/>
<path d="M0 0 C2.97 0 5.94 0 9 0 C8.67 0.99 8.34 1.98 8 3 C5.36 2.34 2.72 1.68 0 1 C0 0.67 0 0.34 0 0 Z " fill="#DDDCDC" transform="translate(398,177)"/>
<path d="M0 0 C2.31 0 4.62 0 7 0 C7 0.99 7 1.98 7 3 C5.68 3.33 4.36 3.66 3 4 C2.01 2.68 1.02 1.36 0 0 Z " fill="#1D201F" transform="translate(402,250)"/>
<path d="M0 0 C-2.75 1.625 -2.75 1.625 -6 3 C-8.375 2.1875 -8.375 2.1875 -10 1 C-3.71428571 -1.42857143 -3.71428571 -1.42857143 0 0 Z " fill="#D2D1CF" transform="translate(388,192)"/>
<path d="M0 0 C0.66 0.33 1.32 0.66 2 1 C-0.16687491 3.27521866 -2.45620509 5.15794162 -5 7 C-5.66 6.67 -6.32 6.34 -7 6 C-4.69 4.02 -2.38 2.04 0 0 Z " fill="#D1D1D1" transform="translate(376,188)"/>
</svg>
