<?xml version="1.0" encoding="UTF-8"?>
<svg version="1.1" xmlns="http://www.w3.org/2000/svg" width="512" height="512">
<path d="M0 0 C0 0.66 0 1.32 0 2 C-0.65742188 2.23332031 -1.31484375 2.46664062 -1.9921875 2.70703125 C-30.49513017 13.63702146 -52.50561661 34.27191892 -65 62 C-70.16461865 73.9675985 -73.69342771 86.18115898 -76 99 C-76.29003906 100.60294922 -76.29003906 100.60294922 -76.5859375 102.23828125 C-79.90889842 132.42706776 -73.66994919 164.29601634 -54.859375 188.703125 C-53.93898438 189.84007812 -53.93898438 189.84007812 -53 191 C-52.26265625 191.92296875 -51.5253125 192.8459375 -50.765625 193.796875 C-50.18296875 194.52390625 -49.6003125 195.2509375 -49 196 C-49.33 196.66 -49.66 197.32 -50 198 C-77.98385406 176.87933934 -96.96661606 150.17333386 -102.1628418 114.93676758 C-103.13885225 107.64745062 -103.68155757 100.34613743 -104 93 C-104.61488281 94.55460937 -104.61488281 94.55460937 -105.2421875 96.140625 C-105.7863659 97.51045339 -106.33064187 98.88024302 -106.875 100.25 C-107.27912109 101.27287109 -107.27912109 101.27287109 -107.69140625 102.31640625 C-109.0045222 105.61520973 -110.33401714 108.86212936 -112 112 C-116.36547531 107.63452469 -114.31108651 92.92772235 -114.31469727 87.20507812 C-114.03147841 63.13985506 -106.00995601 37.93535867 -89.2734375 20.19921875 C-85.01636185 16.08111979 -80.94002665 12.1670251 -75 11 C-75.825 11.928125 -76.65 12.85625 -77.5 13.8125 C-87.85215287 25.94278736 -95.96835255 38.47440111 -100 54 C-99.07380859 52.65808594 -99.07380859 52.65808594 -98.12890625 51.2890625 C-80.31157487 25.73030996 -57.2408451 8.27596276 -26.35644531 2.390625 C-17.68983778 0.95397228 -8.78792173 0 0 0 Z " fill="#F2F3F2" transform="translate(240,191)"/>
<path d="M0 0 C0.66 0.33 1.32 0.66 2 1 C0.02 3.97 0.02 3.97 -2 7 C-1.154375 6.72285156 -0.30875 6.44570312 0.5625 6.16015625 C6.73692063 4.18855148 12.53131828 2.50734759 19 2 C17.45386266 5.88311505 15.00800151 7.98740611 11.875 10.6875 C10.23448381 12.10726684 8.60494929 13.5401476 7 15 C7 15.33 7 15.66 7 16 C7.86109375 15.84015625 8.7221875 15.6803125 9.609375 15.515625 C18.35854479 14.18510609 27.88683476 14.00101592 36 18 C36.66 18.99 37.32 19.98 38 21 C37.01 22.65 36.02 24.3 35 26 C36.01320313 26.07347656 36.01320313 26.07347656 37.046875 26.1484375 C37.93890625 26.22320312 38.8309375 26.29796875 39.75 26.375 C40.63171875 26.44460937 41.5134375 26.51421875 42.421875 26.5859375 C44.99066382 26.99850055 46.75841015 27.71160957 49 29 C46.11970643 31.28552297 43.2169425 32.97320422 39.9375 34.625 C33.6354632 37.98835118 28.37102161 42.32502955 23 47 C21.95550089 43.86650268 22.06576355 43.01031744 23 40 C20.92064793 40.4100567 20.92064793 40.4100567 19 42 C18.70806681 43.9786583 18.42658994 45.96224055 18.28125 47.95703125 C17.8931259 50.7763216 16.64148415 52.71619597 15 55 C20.01627125 53.25561996 24.15063888 50.36499815 28.4765625 47.36523438 C36.36211657 42.0994366 43.6565956 40.52791484 53.0625 40.8125 C53.92810547 40.82603516 54.79371094 40.83957031 55.68554688 40.85351562 C57.79064174 40.8884067 59.89540974 40.94219335 62 41 C62 44 62 44 59.9375 46.25 C59.47730469 46.67796875 59.01710938 47.1059375 58.54296875 47.546875 C57.46650528 48.56065832 56.42947252 49.61724561 55.42578125 50.703125 C48.02632504 58.63727385 39.92371005 61.69582623 29.4375 63.8125 C28.42880859 64.02841797 27.42011719 64.24433594 26.38085938 64.46679688 C23.9230139 64.99098193 21.4632033 65.50171964 19 66 C20.41791563 63.06553114 21.98332607 60.56667591 24 58 C18.4336065 60.22171003 16.18698913 62.97256799 13.0625 67.8125 C8.1542821 75.0300879 3.39506916 80.64197234 -5 84 C-6.32 84 -7.64 84 -9 84 C-9 83.01 -9 82.02 -9 81 C-11.97 81 -14.94 81 -18 81 C-17.113125 80.01 -16.22625 79.02 -15.3125 78 C-9.33644816 71.01849868 -5.55577408 64.85528021 -5.6484375 55.51171875 C-6.57020038 48.92623504 -10.21180671 43.44617949 -15 39 C-17.85487648 30.43537056 -16.24599983 21.75393572 -12.5625 13.76953125 C-9.35076576 8.07673231 -5.28044659 3.80145936 0 0 Z " fill="#F1F2F2" transform="translate(249,59)"/>
<path d="M0 0 C0 0.66 0 1.32 0 2 C-1.2719019 3.03135308 -2.59546473 3.99922235 -3.9375 4.9375 C-13.04364199 11.86390406 -18.91382145 20.38414919 -23 31 C-22.67 31.33 -22.34 31.66 -22 32 C-21.56171875 31.57589844 -21.1234375 31.15179688 -20.671875 30.71484375 C-15.06867558 25.53302315 -8.93220555 21.24213921 -2 18 C-1.34 18.33 -0.68 18.66 0 19 C-1.68541984 20.85609527 -3.37291433 22.71020131 -5.0625 24.5625 C-5.56330078 25.11244629 -6.06410156 25.66239258 -6.58007812 26.22900391 C-9.78409538 29.72888762 -13.05965223 33.09958179 -16.5625 36.3046875 C-20.6672704 41.14563954 -21.63642117 46.43362523 -22.5 52.5 C-23.26332956 57.86215453 -24.14028178 62.2727107 -27 67 C-27.99 67.495 -27.99 67.495 -29 68 C-29 61.73 -29 55.46 -29 49 C-32.61452434 55.96362933 -32.61452434 55.96362933 -34.125 62.9375 C-34.5078125 65.77734375 -34.5078125 65.77734375 -35 68 C-35.99 68.495 -35.99 68.495 -37 69 C-37.99 66.03 -38.98 63.06 -40 60 C-40.33 60.33 -40.66 60.66 -41 61 C-40.93873912 63.12934377 -40.87301773 65.25867373 -40.78222656 67.38696289 C-40.28973555 80.97235289 -40.28973555 80.97235289 -45.40234375 87.015625 C-50.85539232 93.78860464 -52.12816174 102.65612715 -52.31640625 111.046875 C-52.33718735 111.81807678 -52.35796844 112.58927856 -52.37937927 113.3838501 C-52.44458572 115.83914572 -52.50362484 118.29454521 -52.5625 120.75 C-52.60571274 122.41797935 -52.6493279 124.08594832 -52.69335938 125.75390625 C-52.80023736 129.83583196 -52.90158566 133.91786182 -53 138 C-53.94101563 137.36578125 -54.88203125 136.7315625 -55.8515625 136.078125 C-58.21454673 134.51843814 -60.44129722 133.18093974 -63 132 C-66.58214448 137.58476069 -66.3564056 142.48257253 -66.1875 148.875 C-66.17396484 149.84953125 -66.16042969 150.8240625 -66.14648438 151.828125 C-66.11131962 154.21932863 -66.0621067 156.60936975 -66 159 C-65.34 159 -64.68 159 -64 159 C-63.79375 158.46375 -63.5875 157.9275 -63.375 157.375 C-61.15322978 153.53739689 -58.15016491 149.6618835 -53.8046875 148.32421875 C-52.91136719 148.16373047 -52.91136719 148.16373047 -52 148 C-52.95378956 154.2994473 -56.1302249 159.51477476 -60.953125 163.69140625 C-62.59068157 164.85966307 -64.29036089 165.94002375 -66 167 C-66.66 166.67 -67.32 166.34 -68 166 C-67.78730469 165.27167969 -67.57460937 164.54335937 -67.35546875 163.79296875 C-66.92237048 160.39005381 -67.59862383 159.23333122 -69.3125 156.3125 C-73.67615471 148.14276869 -75.75887095 138.29675802 -73.21875 129.203125 C-72.6373442 127.34864098 -72.02157831 125.50438418 -71.36328125 123.67578125 C-70.86491574 120.00502452 -72.27866512 118.23156266 -74 115 C-74.73046875 111.52734375 -74.73046875 111.52734375 -75.1875 107.9375 C-75.34605469 106.75027344 -75.50460938 105.56304687 -75.66796875 104.33984375 C-75.77753906 103.23769531 -75.88710937 102.13554687 -76 101 C-76.14695313 99.71029297 -76.14695313 99.71029297 -76.296875 98.39453125 C-75.87427715 94.98594599 -74.26750838 93.33865658 -72.0625 90.75 C-71.33160156 89.87859375 -70.60070312 89.0071875 -69.84765625 88.109375 C-68.92161312 87.05215874 -67.99379628 85.99379628 -67 85 C-67.09539062 84.28972656 -67.19078125 83.57945313 -67.2890625 82.84765625 C-67.67997897 79.60668599 -67.71583442 77.20091867 -67 74 C-63.41664297 69.59742155 -59.11945542 65.55972771 -54 63 C-53.64929199 60.50907387 -53.39459795 58.06573305 -53.1875 55.5625 C-52.4856863 48.53494267 -50.80781838 43.04600171 -47 37 C-44.77810176 39.22189824 -44.07401108 41.08482708 -43 44 C-42.90203125 43.2265625 -42.8040625 42.453125 -42.703125 41.65625 C-40.66137035 27.43437277 -34.69602047 19.4278338 -23.46777344 10.71386719 C-17.43396715 6.28816737 -7.67241944 0 0 0 Z " fill="#F0F0F0" transform="translate(231,30)"/>
<path d="M0 0 C2.32421875 2.16015625 2.32421875 2.16015625 4 4 C-1.445 3.505 -1.445 3.505 -7 3 C-6.29915283 3.46374023 -5.59830566 3.92748047 -4.8762207 4.40527344 C-2.25646885 6.14035775 0.36185252 7.87757452 2.97924805 9.61621094 C4.10856906 10.365756 5.23844298 11.11446874 6.36889648 11.86230469 C8.00131896 12.94242542 9.63153925 14.02587201 11.26171875 15.109375 C12.73064575 16.08342285 12.73064575 16.08342285 14.22924805 17.07714844 C16.9314485 18.9524265 19.52854001 20.82806822 22 23 C22 23.66 22 24.32 22 25 C20.68 25 19.36 25 18 25 C19.50240234 26.16015625 19.50240234 26.16015625 21.03515625 27.34375 C37.66046026 40.32092051 37.66046026 40.32092051 41 47 C37.03564468 46.44683414 33.6837622 45.54379132 30 44 C30.50789063 44.83660156 31.01578125 45.67320313 31.5390625 46.53515625 C44.67813138 68.57354081 53.36404664 95.28329692 47 121 C46.36795136 122.68010022 45.71145192 124.35195316 45 126 C43.81547299 123.65969663 42.6731527 121.30655371 41.5546875 118.93359375 C37.72904269 110.97091444 33.4081728 104.02440835 28 97 C27.34 96.01 26.68 95.02 26 94 C33.625 94.875 33.625 94.875 37 96 C35.56825986 93.24696439 34.12860078 90.49814568 32.6875 87.75 C32.28337891 86.97269531 31.87925781 86.19539063 31.46289062 85.39453125 C29.53135464 81.71990181 27.66631798 78.20993621 25 75 C26 74 26 74 28.5625 73.9375 C29.366875 73.958125 30.17125 73.97875 31 74 C26.5296172 65.41686503 20.45951037 59.08939622 13 53 C15.86578759 51.83838221 17.01630163 52.0053846 20.015625 52.99609375 C21.08296875 53.47175781 22.1503125 53.94742188 23.25 54.4375 C24.32765625 54.91058594 25.4053125 55.38367188 26.515625 55.87109375 C27.33546875 56.24363281 28.1553125 56.61617188 29 57 C18.05219667 38.25823073 3.32269831 23.60898928 -17.6796875 17.1796875 C-19.44084978 16.73469632 -21.21876508 16.35624698 -23 16 C-22 14 -22 14 -19 13 C-16.66700175 12.96045766 -14.33291811 12.95598268 -12 13 C-21.76161261 2.86123417 -33.82640935 -1.82836296 -47 -6 C-47 -6.33 -47 -6.66 -47 -7 C-32.19015391 -10.35113306 -13.22989694 -7.54467467 0 0 Z " fill="#E8E8E8" transform="translate(316,56)"/>
<path d="M0 0 C7.92875698 -0.69376624 14.55909526 1.83762035 22 4.375 C45.44660974 12.38202784 45.44660974 12.38202784 69 7 C69.99 6.67 70.98 6.34 72 6 C74.01281715 12.03845145 73.36060222 18.15469926 71 24 C66.69662523 28.19303183 62.96426929 29.38713212 56.9609375 29.3671875 C50.43767041 28.55823353 44.19381186 26.12793536 38 24 C38.44730469 24.38929688 38.89460938 24.77859375 39.35546875 25.1796875 C46.67812666 31.9558784 51.55447551 40.93447036 52.11328125 51.05078125 C52.12320194 52.7009231 52.06869755 54.35125891 52 56 C51.01 55.13375 50.02 54.2675 49 53.375 C45.13475814 50.05516037 41.1012316 47.02196013 37 44 C39.475 50.435 39.475 50.435 42 57 C33.3464958 54.1154986 27.08953577 48.71410355 21 42 C21 41.34 21 40.68 21 40 C20.34 40 19.68 40 19 40 C18.690625 41.8871875 18.690625 41.8871875 18.375 43.8125 C15.70768841 55.42528515 8.30546214 63.8845321 0 72 C-0.99 72.495 -0.99 72.495 -2 73 C-0.24020574 64.16823748 1.76385326 55.91757897 5.625 47.75 C8.83685379 40.95278193 10.36754184 34.53786865 11 27 C11.67417969 27.27585938 12.34835937 27.55171875 13.04296875 27.8359375 C16.4415473 29.17381915 19.87071093 30.40268239 23.3125 31.625 C23.95767578 31.85445312 24.60285156 32.08390625 25.26757812 32.3203125 C26.84474179 32.8810818 28.42232784 33.44066291 30 34 C23.93372229 21.55535312 16.97873069 12.6037208 5.3828125 4.69140625 C3.35094421 3.24911286 1.68421 1.82363136 0 0 Z " fill="#E9EAE9" transform="translate(258,145)"/>
<path d="M0 0 C1.91203503 3.82407006 -0.74704403 8.58824833 -1.89453125 12.51953125 C-4.79427487 23.5555236 -5.40743868 34.64318682 -5.375 46 C-5.37445618 46.7206665 -5.37391235 47.44133301 -5.37335205 48.18383789 C-5.33092834 60.46567127 -4.31527011 72.13454969 -1 84 C-0.80696289 84.70866211 -0.61392578 85.41732422 -0.41503906 86.14746094 C4.45567628 103.30293615 13.50847325 119.68418641 24 134 C23.67 134.66 23.34 135.32 23 136 C1.38981958 120.5017898 -14.7130914 97.97059307 -19.25 71.4375 C-21.94373095 51.13831322 -17.97357005 31.61829753 -9 13.375 C-8.68015137 12.72402344 -8.36030273 12.07304687 -8.03076172 11.40234375 C-5.81512651 7.10291647 -3.20788635 3.62001064 0 0 Z " fill="#EAEAEA" transform="translate(207,250)"/>
<path d="M0 0 C4.40368954 2.14953711 8.55761294 4.65631206 12.75 7.1875 C13.5234375 7.64447266 14.296875 8.10144531 15.09375 8.57226562 C25.38542315 14.79734645 31.26881507 21.26043368 37.1875 31.75 C45.3728663 45.81425632 53.96662405 59.64798683 64.51171875 72.08984375 C65.98483674 73.9805385 67.01127178 75.82284968 68 78 C56.52654645 73.85002744 47.28527761 67.8590124 38 60 C37.19820313 59.34515625 36.39640625 58.6903125 35.5703125 58.015625 C19.4581611 44.32287014 2.83920379 21.48761049 0 0 Z " fill="#EDEDEC" transform="translate(333,354)"/>
<path d="M0 0 C1.4540625 1.2065625 1.4540625 1.2065625 2.9375 2.4375 C10.19020711 7.91296717 18.77246686 12.26439865 27.08862305 15.91748047 C29.25152057 17.14245015 30.0884508 18.18853424 31.41015625 20.2734375 C31.8371582 20.92771729 32.26416016 21.58199707 32.70410156 22.25610352 C33.15237305 22.95533936 33.60064453 23.6545752 34.0625 24.375 C39.10149624 31.97192738 44.63161156 38.48188456 51 45 C51.63679688 45.68707031 52.27359375 46.37414062 52.9296875 47.08203125 C56.6597882 51.0269995 60.67286067 53.96101818 65.27734375 56.8359375 C65.84582031 57.22007812 66.41429687 57.60421875 67 58 C67 58.33 67 58.66 67 59 C50.61309652 59.81934517 36.87763721 53.00803018 24.67529297 42.4597168 C12.69288914 31.59098025 2.32153852 16.25076965 0 0 Z " fill="#EDEDED" transform="translate(312,286)"/>
<path d="M0 0 C10.28894682 1.71482447 16.67709163 9.47698288 23.74194336 16.71826172 C26.27749649 19.31333488 28.8082711 21.73142415 31.6875 23.9375 C41.75007453 32.30247638 49.47619984 47.10290879 51 60 C51.13618613 63.3436044 51.10338123 66.65667496 51 70 C45.83996289 65.62239989 40.78491347 61.15206098 35.8125 56.5625 C34.76545898 55.61793945 34.76545898 55.61793945 33.69726562 54.65429688 C27.55318817 48.96620233 24.37239127 43.50603346 21.5625 35.5625 C18.46466213 26.48838876 18.46466213 26.48838876 12 20 C11.34 22.31 10.68 24.62 10 27 C9.34 27 8.68 27 8 27 C5.36 18.09 2.72 9.18 0 0 Z " fill="#EBEBEA" transform="translate(314,187)"/>
<path d="M0 0 C2.69602655 0.12364604 5.39114875 0.2071302 8.08886719 0.28442383 C9.805094 0.34398353 11.52124598 0.40574977 13.23730469 0.4699707 C14.44496994 0.51082542 14.44496994 0.51082542 15.67703247 0.55250549 C21.30797153 0.8257938 21.30797153 0.8257938 23.54199219 3.05981445 C16.75084608 8.52225806 9.44350921 11.7625658 0.54199219 11.05981445 C0.54199219 11.71981445 0.54199219 12.37981445 0.54199219 13.05981445 C5.49199219 13.05981445 10.44199219 13.05981445 15.54199219 13.05981445 C13.67999061 16.78381761 12.94318424 17.85195522 9.79199219 20.18481445 C9.13714844 20.68239258 8.48230469 21.1799707 7.80761719 21.69262695 C0.86538278 25.88190634 -6.59194474 25.97556508 -14.45800781 25.05981445 C-19.33235595 23.74068006 -23.94322077 21.71779316 -28.59667969 19.78198242 C-32.14111493 18.40679362 -35.82036436 17.55977329 -39.51660156 16.70043945 C-40.15726562 16.4890332 -40.79792969 16.27762695 -41.45800781 16.05981445 C-41.78800781 15.39981445 -42.11800781 14.73981445 -42.45800781 14.05981445 C-40.33460621 13.22241664 -38.20923501 12.39001162 -36.08300781 11.55981445 C-34.89964844 11.09575195 -33.71628906 10.63168945 -32.49707031 10.15356445 C-29.45800781 9.05981445 -29.45800781 9.05981445 -27.45800781 9.05981445 C-28.11800781 7.73981445 -28.77800781 6.41981445 -29.45800781 5.05981445 C-19.66089315 -0.53978419 -10.9813194 -0.50718978 0 0 Z " fill="#EBECEC" transform="translate(298.4580078125,123.940185546875)"/>
<path d="M0 0 C4.37552526 1.7177355 8.68937731 3.56452649 13 5.4375 C13.69867188 5.73720703 14.39734375 6.03691406 15.1171875 6.34570312 C15.80039062 6.64283203 16.48359375 6.93996094 17.1875 7.24609375 C17.79980469 7.51091553 18.41210938 7.7757373 19.04296875 8.04858398 C24.18579797 10.54878427 26.65798597 12.44671261 29.3046875 17.62890625 C30.18060547 19.30629883 30.18060547 19.30629883 31.07421875 21.01757812 C31.66847656 22.18740234 32.26273437 23.35722656 32.875 24.5625 C38.54444383 35.60857023 44.8091697 45.44361549 52.6171875 55.08984375 C54 57 54 57 55 60 C37.55160475 55.48748399 20.73323821 40.92979759 11 26 C6.24735243 17.78370706 2.14352606 9.28861293 0 0 Z " fill="#EFEFEE" transform="translate(269,317)"/>
<path d="M0 0 C2.8364094 1.29715018 4.95927116 2.68806998 7.21484375 4.8359375 C7.81192139 5.39933838 8.40899902 5.96273926 9.02416992 6.54321289 C9.65556885 7.14770264 10.28696777 7.75219238 10.9375 8.375 C12.2859649 9.65286464 13.63493193 10.93019961 14.984375 12.20703125 C15.65919922 12.84721191 16.33402344 13.48739258 17.02929688 14.14697266 C18.81995454 15.83070552 20.62848795 17.4899785 22.453125 19.13671875 C40.71218715 35.61707052 58.56261269 55.17193002 64 80 C63.505 81.485 63.505 81.485 63 83 C62.18208984 81.47632813 62.18208984 81.47632813 61.34765625 79.921875 C56.49925558 71.02083669 51.31998917 62.94645697 45 55 C43.79082611 53.43815039 42.58243365 51.87569534 41.375 50.3125 C40.81296875 49.59578125 40.2509375 48.8790625 39.671875 48.140625 C38.54715755 46.70056621 37.43270225 45.25243942 36.328125 43.796875 C30.99404219 36.79894985 25.2226219 30.2226219 19 24 C19 26.97 19 29.94 19 33 C16 33 16 33 14.33349609 31.56640625 C13.73617676 30.90511719 13.13885742 30.24382812 12.5234375 29.5625 C11.85634766 28.83538818 11.18925781 28.10827637 10.50195312 27.35913086 C9.80005859 26.58061768 9.09816406 25.80210449 8.375 25 C2.83887451 18.97528273 -2.66202179 13.19362103 -9 8 C-7.88625 7.13375 -7.88625 7.13375 -6.75 6.25 C-4.33912357 4.27746474 -2.15957299 2.23955718 0 0 Z " fill="#EDEDED" transform="translate(338,177)"/>
<path d="M0 0 C6.55875718 2.27817891 11.65132528 6.71129732 17 11 C17.75152344 11.59683594 18.50304687 12.19367188 19.27734375 12.80859375 C31.96614226 24.09031757 36.86124414 44.38416909 42 60 C37.23578099 57.8116005 33.81923121 54.53774683 30 51 C29.13761719 50.21496094 28.27523438 49.42992187 27.38671875 48.62109375 C14.50165382 36.39212831 4.29070468 20.38864529 0 3 C0 2.01 0 1.02 0 0 Z " fill="#EDECEC" transform="translate(377,358)"/>
<path d="M0 0 C1.9991472 2.99872079 2.94968245 5.54716091 4.125 8.9375 C8.76745169 21.15447812 16.7268598 30.61689871 25.80859375 39.8359375 C31.93280393 46.3137395 35.82330545 54.19592673 40 62 C39.01 62.495 39.01 62.495 38 63 C23.80139079 57.475099 12.10418939 48.70899132 5 35 C1.09325277 25.83845268 -1.15017705 16.62028772 -1.125 6.625 C-1.12757813 5.58601562 -1.13015625 4.54703125 -1.1328125 3.4765625 C-1 1 -1 1 0 0 Z " fill="#E8E8E7" transform="translate(237,241)"/>
<path d="M0 0 C0.70511719 0.70769531 1.41023438 1.41539062 2.13671875 2.14453125 C4.0426529 4.05180997 5.96274343 5.94314768 7.89453125 7.82421875 C8.86721196 8.7786209 9.83986808 9.73304812 10.8125 10.6875 C11.31458984 11.17283203 11.81667969 11.65816406 12.33398438 12.15820312 C13.59417273 13.40124606 14.80191044 14.69699892 16 16 C16 16.66 16 17.32 16 18 C16.58523438 18.2578125 17.17046875 18.515625 17.7734375 18.78125 C29.30532399 25.0934405 35.44182018 41.72175163 41 53 C28.38618323 50.95025477 17.78811123 41.22657675 10.01953125 31.52734375 C4.07611743 22.37540318 0.57111042 10.85109802 0 0 Z " fill="#E7E7E6" transform="translate(288,222)"/>
<path d="M0 0 C4.24389759 2.21420744 7.87302288 4.63224704 11.5625 7.6875 C15.61255691 11.02430033 19.79753756 13.81509904 24.25 16.5625 C37.06784354 24.6439775 44.40492677 38.13394895 50 52 C39.25419766 49.96028752 30.5830444 40.32299486 23 33 C22.19433594 32.2575 21.38867188 31.515 20.55859375 30.75 C12.15502704 22.79949514 4.80990648 12.56245795 0 2 C0 1.34 0 0.68 0 0 Z " fill="#E9E9E8" transform="translate(304,382)"/>
<path d="M0 0 C5.03043766 2.42380231 9.69462494 5.43939635 14.4375 8.375 C15.37916016 8.9525 16.32082031 9.53 17.29101562 10.125 C23.62864883 14.04297225 29.18691629 17.63839018 33.75 23.625 C38.7613744 30.03842244 44.06602084 36.22801857 49.9375 41.875 C51.89233252 43.88906987 52.83074106 45.49369609 54 48 C32.63006357 41.22724456 15.76096843 27.86749955 4 9 C2.47157532 6.02897128 1.21519744 3.1172456 0 0 Z " fill="#E5E5E4" transform="translate(367,429)"/>
<path d="M0 0 C0.86560547 0.01353516 1.73121094 0.02707031 2.62304688 0.04101562 C4.72814174 0.0759067 6.83290974 0.12969335 8.9375 0.1875 C8.9375 3.1875 8.9375 3.1875 6.875 5.4375 C6.41480469 5.86546875 5.95460938 6.2934375 5.48046875 6.734375 C4.40400528 7.74815832 3.36697252 8.80474561 2.36328125 9.890625 C-5.03617496 17.82477385 -13.13878995 20.88332623 -23.625 23 C-24.63369141 23.21591797 -25.64238281 23.43183594 -26.68164062 23.65429688 C-29.1394861 24.17848193 -31.5992967 24.68921964 -34.0625 25.1875 C-32.51055246 21.85990077 -30.75628051 19.70169515 -28.0625 17.1875 C-30.11861756 14.19352162 -30.11861756 14.19352162 -33.0625 12.1875 C-30.92460795 10.73689615 -28.77830209 9.3024202 -26.625 7.875 C-26.03267578 7.47087891 -25.44035156 7.06675781 -24.83007812 6.65039062 C-16.81905374 1.38110721 -9.52507113 -0.28819067 0 0 Z " fill="#EEEEEE" transform="translate(302.0625,99.8125)"/>
<path d="M0 0 C12.62794863 5.88735443 22.01046389 17.13398502 27.15625 29.859375 C30.28411278 38.84080957 30.77449272 47.58507087 31 57 C30.34 57 29.68 57 29 57 C28.46632813 56.01902344 27.93265625 55.03804688 27.3828125 54.02734375 C23.48234014 46.93702574 19.46282913 40.04451578 14.875 33.375 C7.76415278 22.93406809 2.41305179 12.54786931 0 0 Z " fill="#EAE9E9" transform="translate(351,256)"/>
<path d="M0 0 C-1.10408203 0.79664063 -1.10408203 0.79664063 -2.23046875 1.609375 C-3.20628906 2.31578125 -4.18210938 3.0221875 -5.1875 3.75 C-6.63189453 4.79414062 -6.63189453 4.79414062 -8.10546875 5.859375 C-18.88460611 13.83099075 -22.80321056 22.09836229 -26.36914062 34.76953125 C-27.03478307 37.12297914 -27.72532723 39.46802215 -28.421875 41.8125 C-29.62741663 45.87133777 -30.81754798 49.93437772 -32 54 C-32.99 54 -33.98 54 -35 54 C-37.55987646 40.240664 -36.57413312 26.24719409 -28.7890625 14.3203125 C-23.15491343 7.013141 -16.79120422 2.68746658 -8 0 C-7.32582031 -0.21785156 -6.65164062 -0.43570313 -5.95703125 -0.66015625 C-3.68533449 -1.05464251 -2.17671803 -0.69965937 0 0 Z " fill="#DDDDDC" transform="translate(258,41)"/>
<path d="M0 0 C8.11267254 2.70422418 14.26216928 14.59681728 18 22 C21.85369464 30.45594867 24.87918525 38.70496735 26 48 C15.50258022 43.8828927 6.31193695 26.72467303 2.0625 17 C0.23924289 11.57697884 0.25061216 5.66901987 0 0 Z " fill="#E3E2E2" transform="translate(380,267)"/>
<path d="M0 0 C18.42907209 15.35756007 35.73976649 35.98084553 41 60 C40.67 60.99 40.34 61.98 40 63 C39.45472656 61.98421875 38.90945313 60.9684375 38.34765625 59.921875 C33.49925558 51.02083669 28.31998917 42.94645697 22 35 C20.79082611 33.43815039 19.58243365 31.87569534 18.375 30.3125 C17.81296875 29.59578125 17.2509375 28.8790625 16.671875 28.140625 C15.54715755 26.70056621 14.43270225 25.25243942 13.328125 23.796875 C9.45803988 18.71960737 5.3409217 13.95753912 1.015625 9.26171875 C-0.78260925 7.24393265 -2.41732224 5.1887031 -4 3 C-3.01 2.67 -2.02 2.34 -1 2 C-0.67 1.34 -0.34 0.68 0 0 Z " fill="#DDDCDB" transform="translate(361,197)"/>
<path d="M0 0 C6.95592065 6.74513518 12.68597919 13.42829691 17.0625 22.125 C17.48515137 22.94524658 17.90780273 23.76549316 18.34326172 24.6105957 C21.90212343 31.60252825 25.07836153 38.71965698 28 46 C17.61288711 41.49649651 7.13502823 29.44569206 2.8125 19.1796875 C0.95785217 12.92025108 0.36457695 6.49952697 0 0 Z " fill="#E4E3E3" transform="translate(364,218)"/>
<path d="M0 0 C-0.03258795 7.80481365 -1.74803593 13.14066593 -7 19 C-10.11536275 21.95221408 -12.57284356 22.99614282 -16.890625 23.0078125 C-19.62153415 22.77673557 -22.29722867 22.44964731 -25 22 C-20.42581112 12.33079875 -11.91445575 0 0 0 Z " fill="#E6E7E6" transform="translate(224,115)"/>
<path d="M0 0 C0.66 0 1.32 0 2 0 C2.46093612 5.76170155 1.6941924 8.54802455 -2 13 C-6.91402864 18.10954703 -12.59390238 21.08696567 -19 24 C-15.4728258 16.03119903 -8.57456268 9.26850958 -2.3125 3.33984375 C-0.87900567 2.01337071 -0.87900567 2.01337071 0 0 Z " fill="#DDDCDD" transform="translate(247,203)"/>
<path d="M0 0 C1 3 1 3 0.06640625 5.26953125 C-3.49174761 11.28604596 -7.05958615 15.29101064 -13 19 C-13.66 18.67 -14.32 18.34 -15 18 C-14.773125 17.29875 -14.54625 16.5975 -14.3125 15.875 C-13.90514009 12.12728882 -15.28611574 10.28494484 -17 7 C-16.67 6.01 -16.34 5.02 -16 4 C-15.34 4 -14.68 4 -14 4 C-13.67 3.34 -13.34 2.68 -13 2 C-13 4.97 -13 7.94 -13 11 C-12.34 11 -11.68 11 -11 11 C-10.79375 10.46375 -10.5875 9.9275 -10.375 9.375 C-7.90411084 5.10710054 -4.71383238 1.57127746 0 0 Z " fill="#EEECED" transform="translate(178,178)"/>
<path d="M0 0 C0.99 0.33 1.98 0.66 3 1 C3.66 0.67 4.32 0.34 5 0 C8.59476701 3.49205938 11.92026191 7.04033675 15 11 C15 11.66 15 12.32 15 13 C7.4014885 10.88238204 1.49838836 7.43347991 -5 3 C-2 1 -2 1 0 0 Z " fill="#EAE9E7" transform="translate(309,364)"/>
<path d="M0 0 C0.66 0.33 1.32 0.66 2 1 C0.25420935 2.9414396 -1.49637493 4.87815784 -3.25 6.8125 C-3.74113281 7.35970703 -4.23226562 7.90691406 -4.73828125 8.47070312 C-7.31729955 11.30762325 -9.80629194 13.83284096 -13 16 C-13.433125 15.505 -13.86625 15.01 -14.3125 14.5 C-15.99740483 12.66781808 -15.99740483 12.66781808 -19 13 C-13.300174 7.6887985 -7.05853439 3.35253606 0 0 Z " fill="#DCDCD9" transform="translate(229,48)"/>
<path d="M0 0 C3.91939465 3.80411834 7.49102731 7.81576108 11 12 C9.68 13.32 8.36 14.64 7 16 C4.625 15.5625 4.625 15.5625 2 14 C0.24525725 9.57346302 -0.30571318 4.73855429 0 0 Z " fill="#E7E6E6" transform="translate(364,218)"/>
<path d="M0 0 C0.33 0 0.66 0 1 0 C1 7.59 1 15.18 1 23 C2.32 22.67 3.64 22.34 5 22 C5 21.01 5 20.02 5 19 C5.99 19 6.98 19 8 19 C7.80664062 19.56847656 7.61328125 20.13695312 7.4140625 20.72265625 C5.81863577 25.45364938 4.33099414 30.18794425 3 35 C2.34 34.67 1.68 34.34 1 34 C-0.37081142 26.89592071 -0.11399295 19.70901266 -0.0625 12.5 C-0.05798828 11.29601562 -0.05347656 10.09203125 -0.04882812 8.8515625 C-0.0371195 5.90098927 -0.02071995 2.95052141 0 0 Z " fill="#BDBDBC" transform="translate(126,268)"/>
<path d="M0 0 C3.29018004 3.71631782 4.64740676 7.95309954 6.25 12.5625 C6.53101563 13.33013672 6.81203125 14.09777344 7.1015625 14.88867188 C7.36195313 15.62794922 7.62234375 16.36722656 7.890625 17.12890625 C8.12813477 17.79994385 8.36564453 18.47098145 8.61035156 19.16235352 C9 21 9 21 8 24 C6.53779721 21.43964079 5.08014847 18.8768644 3.625 16.3125 C3.2125 15.59126953 2.8 14.87003906 2.375 14.12695312 C0.31567728 10.48992349 -1.58289052 6.94766212 -3 3 C-2.01 2.01 -1.02 1.02 0 0 Z " fill="#C8C9C7" transform="translate(393,236)"/>
<path d="M0 0 C2.0245738 1.93254772 3.42105792 3.63158688 5 6 C4.625 8.6875 4.625 8.6875 4 11 C3.01 11.33 2.02 11.66 1 12 C-1.475 8.04 -1.475 8.04 -4 4 C-2.68 2.68 -1.36 1.36 0 0 Z " fill="#D2D2D0" transform="translate(388,228)"/>
<path d="M0 0 C0 0.66 0 1.32 0 2 C-1.8984375 3.69140625 -1.8984375 3.69140625 -4.375 5.5625 C-5.59316406 6.49255859 -5.59316406 6.49255859 -6.8359375 7.44140625 C-9 9 -9 9 -11 10 C-12.33333333 8.66666667 -13.66666667 7.33333333 -15 6 C-13.3970947 5.18501438 -11.79262722 4.37310073 -10.1875 3.5625 C-9.29417969 3.11003906 -8.40085938 2.65757813 -7.48046875 2.19140625 C-4.94542384 0.97378625 -2.8412008 0 0 0 Z " fill="#C2C3C0" transform="translate(231,30)"/>
<path d="M0 0 C0.66 0 1.32 0 2 0 C1.55219494 2.64802056 1.09235069 5.2929242 0.625 7.9375 C0.49867188 8.69224609 0.37234375 9.44699219 0.2421875 10.22460938 C-0.10547563 12.16283135 -0.54643504 14.08379205 -1 16 C-1.66 16.33 -2.32 16.66 -3 17 C-5.41835447 8.85762667 -5.41835447 8.85762667 -3.75 5.4375 C-2 4 -2 4 0 4 C0 2.68 0 1.36 0 0 Z " fill="#D6D6D6" transform="translate(197,82)"/>
<path d="M0 0 C3.25524265 3.02272532 5.61820737 6.25718301 8 10 C7.67 10.66 7.34 11.32 7 12 C4.03 9.69 1.06 7.38 -2 5 C-1.34 3.35 -0.68 1.7 0 0 Z " fill="#C5C5C2" transform="translate(223,374)"/>
<path d="M0 0 C7.57142857 4 7.57142857 4 10 8 C7.525 9.485 7.525 9.485 5 11 C4.16151196 9.54462432 3.32936066 8.08559627 2.5 6.625 C1.80390625 5.40683594 1.80390625 5.40683594 1.09375 4.1640625 C0 2 0 2 0 0 Z " fill="#C8C7C6" transform="translate(304,382)"/>
<path d="M0 0 C0.66 1.32 1.32 2.64 2 4 C1.34 4 0.68 4 0 4 C0 7.3 0 10.6 0 14 C-1.32 14 -2.64 14 -4 14 C-4.33 12.35 -4.66 10.7 -5 9 C-5.99 10.485 -5.99 10.485 -7 12 C-7.66 12 -8.32 12 -9 12 C-8.39816251 9.97954558 -7.72693904 7.97888961 -7 6 C-6.34 5.67 -5.68 5.34 -5 5 C-4.01 7.31 -3.02 9.62 -2 12 C-1.34 8.04 -0.68 4.08 0 0 Z " fill="#D3D4D3" transform="translate(190,62)"/>
<path d="M0 0 C0.33 0 0.66 0 1 0 C1 2.97 1 5.94 1 9 C1.66 9.33 2.32 9.66 3 10 C3 11.98 3 13.96 3 16 C1.68 16.33 0.36 16.66 -1 17 C-0.773125 16.13375 -0.54625 15.2675 -0.3125 14.375 C0.06536729 10.2940333 -1.10736149 8.5486972 -3 5 C-2.67 4.01 -2.34 3.02 -2 2 C-1.34 2 -0.68 2 0 2 C0 1.34 0 0.68 0 0 Z " fill="#A9A6AA" transform="translate(164,180)"/>
<path d="M0 0 C0.66 0.33 1.32 0.66 2 1 C0.92130607 1.96355244 -0.16318743 2.92061417 -1.25 3.875 C-1.85328125 4.40867188 -2.4565625 4.94234375 -3.078125 5.4921875 C-4.97907317 6.9835818 -6.8404785 7.93794025 -9 9 C-10.37086915 10.29470975 -11.71340837 11.62150897 -13 13 C-13.66 12.67 -14.32 12.34 -15 12 C-10.39255957 7.06944037 -6.17866611 2.84218641 0 0 Z " fill="#A6A5A6" transform="translate(163,202)"/>
<path d="M0 0 C2.31 1.98 4.62 3.96 7 6 C3.59068103 7.13643966 2.99664544 6.86747764 -0.1875 5.5625 C-0.90292969 5.27503906 -1.61835938 4.98757812 -2.35546875 4.69140625 C-3.16951172 4.34916016 -3.16951172 4.34916016 -4 4 C-4 4.66 -4 5.32 -4 6 C-4.66 6 -5.32 6 -6 6 C-6 4.68 -6 3.36 -6 2 C-4.35 2 -2.7 2 -1 2 C-0.67 1.34 -0.34 0.68 0 0 Z " fill="#C5C5C4" transform="translate(350,96)"/>
<path d="M0 0 C0.66 0 1.32 0 2 0 C3.65 3.63 5.3 7.26 7 11 C3.09567131 9.04783565 0.96160056 7.12613393 -2 4 C-1.34 2.68 -0.68 1.36 0 0 Z " fill="#C3C3C3" transform="translate(385,253)"/>
<path d="M0 0 C-3.465 1.485 -3.465 1.485 -7 3 C-7 4.32 -7 5.64 -7 7 C-9.3431213 6.74438677 -11.67843403 6.40729228 -14 6 C-14.33 5.34 -14.66 4.68 -15 4 C-12.87875034 3.13656176 -10.75286928 2.28449352 -8.625 1.4375 C-6.84996094 0.72400391 -6.84996094 0.72400391 -5.0390625 -0.00390625 C-2 -1 -2 -1 0 0 Z " fill="#B2B3B1" transform="translate(271,134)"/>
<path d="M0 0 C0.66 0.33 1.32 0.66 2 1 C-2.33333333 5.33333333 -6.66666667 9.66666667 -11 14 C-10.59102482 9.1009995 -8.60793633 7.3004017 -4.9375 4.1875 C-3.55884766 3.00220703 -3.55884766 3.00220703 -2.15234375 1.79296875 C-1.44207031 1.20128906 -0.73179687 0.60960938 0 0 Z " fill="#BCBDBE" transform="translate(175,94)"/>
<path d="M0 0 C0.33 0 0.66 0 1 0 C1 4.29 1 8.58 1 13 C-0.32 13.33 -1.64 13.66 -3 14 C-3.33 12.35 -3.66 10.7 -4 9 C-3.01 8.67 -2.02 8.34 -1 8 C-0.67 5.36 -0.34 2.72 0 0 Z " fill="#D2D0D0" transform="translate(163,169)"/>
<path d="M0 0 C0.66 0 1.32 0 2 0 C1.46930939 3.82097239 0.50298434 6.06171403 -2 9 C-3.32 7.02 -4.64 5.04 -6 3 C-5 2 -5 2 -2.4375 1.9375 C-1.2309375 1.9684375 -1.2309375 1.9684375 0 2 C0 1.34 0 0.68 0 0 Z " fill="#B6B6B7" transform="translate(347,128)"/>
<path d="M0 0 C5 7.5 5 7.5 5 11 C1.63408134 9.55746343 -0.51047079 7.66735273 -3 5 C-2.01 5 -1.02 5 0 5 C-0.33 4.01 -0.66 3.02 -1 2 C-0.67 1.34 -0.34 0.68 0 0 Z " fill="#B4B4B2" transform="translate(414,407)"/>
<path d="M0 0 C6.27 0 12.54 0 19 0 C19 0.99 19 1.98 19 3 C18.01 3.33 17.02 3.66 16 4 C16 3.01 16 2.02 16 1 C10.72 1 5.44 1 0 1 C0 0.67 0 0.34 0 0 Z " fill="#BCB9BD" transform="translate(292,100)"/>
<path d="M0 0 C4.875 4.625 4.875 4.625 6 8 C3.03 7.01 0.06 6.02 -3 5 C-2.34 4.67 -1.68 4.34 -1 4 C-0.34786708 1.97536745 -0.34786708 1.97536745 0 0 Z " fill="#C1C0BF" transform="translate(318,369)"/>
<path d="M0 0 C0.33 0.99 0.66 1.98 1 3 C0.34 3.66 -0.32 4.32 -1 5 C-1 4.34 -1 3.68 -1 3 C-1.83144531 3.74056641 -1.83144531 3.74056641 -2.6796875 4.49609375 C-3.76636719 5.45708984 -3.76636719 5.45708984 -4.875 6.4375 C-5.59429687 7.07558594 -6.31359375 7.71367187 -7.0546875 8.37109375 C-9 10 -9 10 -11 11 C-9.40128806 6.84334895 -6.38692539 3.8008925 -3 1 C-2.01 0.67 -1.02 0.34 0 0 Z " fill="#B4B3B2" transform="translate(178,178)"/>
<path d="M0 0 C2.475 0.495 2.475 0.495 5 1 C5 2.98 5 4.96 5 7 C2.5 5.75 2.5 5.75 0 4 C0 2.68 0 1.36 0 0 Z " fill="#F7F9F8" transform="translate(351,201)"/>
<path d="M0 0 C8.57142857 -0.28571429 8.57142857 -0.28571429 12 2 C10.35 2 8.7 2 7 2 C6.67 2.99 6.34 3.98 6 5 C3.98079663 3.69593116 1.98075027 2.36176581 0 1 C0 0.67 0 0.34 0 0 Z " fill="#A4A2A2" transform="translate(258,145)"/>
<path d="M0 0 C0.66 0.66 1.32 1.32 2 2 C1.625 4.625 1.625 4.625 1 7 C0.01 7 -0.98 7 -2 7 C-2.66 6.01 -3.32 5.02 -4 4 C-3.34 4 -2.68 4 -2 4 C-1.34 2.68 -0.68 1.36 0 0 Z " fill="#E1E0DD" transform="translate(221,370)"/>
<path d="M0 0 C2.97 0.495 2.97 0.495 6 1 C1.25 5.875 1.25 5.875 -1 7 C-0.67 4.69 -0.34 2.38 0 0 Z " fill="#BBBEBD" transform="translate(272,99)"/>
<path d="M0 0 C0.66 0.33 1.32 0.66 2 1 C0.1875 4 0.1875 4 -2 7 C-4 7 -6 7 -8 7 C-5.36 4.69 -2.72 2.38 0 0 Z " fill="#B5B5B4" transform="translate(249,59)"/>
<path d="M0 0 C1.65 0.33 3.3 0.66 5 1 C4.34 2.32 3.68 3.64 3 5 C1.68 4.67 0.36 4.34 -1 4 C-0.67 2.68 -0.34 1.36 0 0 Z " fill="#E7E7E5" transform="translate(383,227)"/>
<path d="M0 0 C1.90318884 2.85478326 2.4619099 4.41941308 3.125 7.6875 C3.29257812 8.49574219 3.46015625 9.30398438 3.6328125 10.13671875 C3.75398438 10.75160156 3.87515625 11.36648438 4 12 C0.88577494 10.44288747 0.2733667 8.15309849 -1 5 C-0.6875 2.125 -0.6875 2.125 0 0 Z " fill="#9A9B98" transform="translate(398,248)"/>
<path d="M0 0 C0 0.99 0 1.98 0 3 C-0.33 3.33 -0.66 3.66 -1 4 C0.32 4.66 1.64 5.32 3 6 C0.03 6.66 -2.94 7.32 -6 8 C-4.21844267 4.43688534 -2.83236991 2.64354525 0 0 Z " fill="#878989" transform="translate(274,117)"/>
<path d="M0 0 C0.66 0.33 1.32 0.66 2 1 C0.02 3.31 -1.96 5.62 -4 8 C-4.33 7.01 -4.66 6.02 -5 5 C-5.66 4.67 -6.32 4.34 -7 4 C-1.7265625 0.77734375 -1.7265625 0.77734375 0 0 Z " fill="#A1A1A1" transform="translate(229,48)"/>
<path d="M0 0 C0.66 0.33 1.32 0.66 2 1 C1.67 2.65 1.34 4.3 1 6 C0.01 6.33 -0.98 6.66 -2 7 C-2.66 6.01 -3.32 5.02 -4 4 C-2.68 2.68 -1.36 1.36 0 0 Z " fill="#DBDBD9" transform="translate(388,228)"/>
<path d="M0 0 C0.33 0 0.66 0 1 0 C1 2.31 1 4.62 1 7 C0.01 7 -0.98 7 -2 7 C-4.1875 4.5 -4.1875 4.5 -6 2 C-3.525 2.99 -3.525 2.99 -1 4 C-0.67 2.68 -0.34 1.36 0 0 Z " fill="#9F9F9E" transform="translate(356,203)"/>
<path d="M0 0 C0.33 0.66 0.66 1.32 1 2 C0.67 2.66 0.34 3.32 0 4 C-0.66 4 -1.32 4 -2 4 C-2.33 5.32 -2.66 6.64 -3 8 C-4.32 7.34 -5.64 6.68 -7 6 C-6.21625 5.38125 -5.4325 4.7625 -4.625 4.125 C-2.03162353 2.10141339 -2.03162353 2.10141339 0 0 Z " fill="#B3B4B3" transform="translate(336,179)"/>
<path d="M0 0 C1.32 0 2.64 0 4 0 C4 2.31 4 4.62 4 7 C3.01 7.495 3.01 7.495 2 8 C1.34 5.36 0.68 2.72 0 0 Z " fill="#A1A09F" transform="translate(192,91)"/>
<path d="M0 0 C1.32 0 2.64 0 4 0 C3.6875 2.375 3.6875 2.375 3 5 C2.01 5.66 1.02 6.32 0 7 C0 4 0 4 1 2 C0.34 1.67 -0.32 1.34 -1 1 C-0.67 0.67 -0.34 0.34 0 0 Z " fill="#D2D2D1" transform="translate(220,53)"/>
<path d="M0 0 C1.485 0.99 1.485 0.99 3 2 C2.67 4.97 2.34 7.94 2 11 C1.67 11 1.34 11 1 11 C0.67 7.37 0.34 3.74 0 0 Z " fill="#ADADAC" transform="translate(364,218)"/>
<path d="M0 0 C-0.33 0.66 -0.66 1.32 -1 2 C-3.32156597 2.40729228 -5.6568787 2.74438677 -8 3 C-8 2.01 -8 1.02 -8 0 C-5.13822943 -1.43088528 -3.06624227 -0.59991697 0 0 Z " fill="#BFC6C2" transform="translate(248,140)"/>
<path d="M0 0 C2.35953094 2.35953094 2.49141413 3.77895617 3 7 C1 6 1 6 0 5 C-0.33 5.66 -0.66 6.32 -1 7 C-1.66 7 -2.32 7 -3 7 C-1.125 1.125 -1.125 1.125 0 0 Z " fill="#AEB0AF" transform="translate(184,67)"/>
<path d="M0 0 C0 1.98 0 3.96 0 6 C-1.32 6 -2.64 6 -4 6 C-3.625 3.5625 -3.625 3.5625 -3 1 C-1 0 -1 0 0 0 Z " fill="#FBF9F7" transform="translate(163,172)"/>
<path d="M0 0 C-3.3340947 2.19097652 -6.04179141 3.43454163 -10 4 C-10.33 3.34 -10.66 2.68 -11 2 C-3.57142857 -1.57142857 -3.57142857 -1.57142857 0 0 Z " fill="#BCBDBB" transform="translate(259,64)"/>
<path d="M0 0 C1 2 1 2 0.0625 5.125 C-0.288125 6.07375 -0.63875 7.0225 -1 8 C-2.32 7.34 -3.64 6.68 -5 6 C-3.35 4.02 -1.7 2.04 0 0 Z " fill="#A6A6A5" transform="translate(207,250)"/>
<path d="M0 0 C0 2.31 0 4.62 0 7 C-0.66 7 -1.32 7 -2 7 C-2.66 5.35 -3.32 3.7 -4 2 C-1 0 -1 0 0 0 Z " fill="#8D8B8E" transform="translate(382,306)"/>
<path d="M0 0 C2.5 1.375 2.5 1.375 5 3 C5 3.66 5 4.32 5 5 C2.69 5 0.38 5 -2 5 C-2 4.34 -2 3.68 -2 3 C-1.34 2.67 -0.68 2.34 0 2 C0 1.34 0 0.68 0 0 Z " fill="#A9A9A8" transform="translate(333,76)"/>
</svg>
